<?xml version="1.0" encoding="UTF-8" standalone="no"?>
<svg
   xmlns:dc="http://purl.org/dc/elements/1.1/"
   xmlns:cc="http://creativecommons.org/ns#"
   xmlns:rdf="http://www.w3.org/1999/02/22-rdf-syntax-ns#"
   xmlns:svg="http://www.w3.org/2000/svg"
   xmlns="http://www.w3.org/2000/svg"
   xmlns:sodipodi="http://sodipodi.sourceforge.net/DTD/sodipodi-0.dtd"
   xmlns:inkscape="http://www.inkscape.org/namespaces/inkscape"
   sodipodi:docname="drawing.svg"
   inkscape:version="1.0beta2 (2b71d25, 2019-12-03)"
   id="svg8"
   version="1.1"
   viewBox="0 0 107.84522 79.523682"
   height="79.523682mm"
   width="107.84522mm">
  <defs
     id="defs2">
    <clipPath
       clipPathUnits="userSpaceOnUse"
       id="clipPath851">
      <path
         d="M 0,0 H 468.028 V 698.717 H 0 Z"
         id="path849"
         inkscape:connector-curvature="0" />
    </clipPath>
    <clipPath
       clipPathUnits="userSpaceOnUse"
       id="clipPath873">
      <path
         d="m 81.39299,416.607 h 305.704 v 228.208 h -305.704 z"
         id="path871"
         inkscape:connector-curvature="0" />
    </clipPath>
    <clipPath
       clipPathUnits="userSpaceOnUse"
       id="clipPath885">
      <path
         d="M 0,0 H 468.028 V 698.717 H 0 Z"
         id="path883"
         inkscape:connector-curvature="0" />
    </clipPath>
  </defs>
  <sodipodi:namedview
     inkscape:window-maximized="0"
     inkscape:window-y="23"
     inkscape:window-x="42"
     inkscape:window-height="880"
     inkscape:window-width="1600"
     showgrid="false"
     inkscape:document-rotation="0"
     inkscape:current-layer="g841"
     inkscape:document-units="mm"
     inkscape:cy="158.22762"
     inkscape:cx="196.02458"
     inkscape:zoom="1.597715"
     inkscape:pageshadow="2"
     inkscape:pageopacity="0.0"
     borderopacity="1.0"
     bordercolor="#666666"
     pagecolor="#ffffff"
     id="base" />
  <metadata
     id="metadata5">
    <rdf:RDF>
      <cc:Work
         rdf:about="">
        <dc:format>image/svg+xml</dc:format>
        <dc:type
           rdf:resource="http://purl.org/dc/dcmitype/StillImage" />
        <dc:title></dc:title>
      </cc:Work>
    </rdf:RDF>
  </metadata>
  <g
     transform="translate(-51.772564,-37.565143)"
     id="layer1"
     inkscape:groupmode="layer"
     inkscape:label="Layer 1">
    <g
       id="g841"
       inkscape:label="feedback"
       transform="matrix(0.35277777,0,0,-0.35277777,23.058747,264.63104)">
      <g
         id="g843" />
      <g
         id="g845">
        <g
           id="g847"
           clip-path="url(#clipPath851)">
          <path
             d="m 82.25199,441.534 h 303.986 v 186.772 h -303.986 z"
             style="fill:#bdbcbc;fill-opacity:1;fill-rule:nonzero;stroke:none"
             id="path865"
             inkscape:connector-curvature="0" />
        </g>
      </g>
      <g
         id="g867">
        <g
           id="g869"
           clip-path="url(#clipPath873)">
          <g
             id="g875"
             transform="translate(82.252,628.306)">
            <path
               d="M 0,-186.772 H 303.986 V 0 H 0 Z"
               style="fill:none;stroke:#231f20;stroke-width:1.717;stroke-linecap:butt;stroke-linejoin:miter;stroke-miterlimit:10;stroke-dasharray:3.435, 3.435;stroke-dashoffset:0;stroke-opacity:1"
               id="path877"
               inkscape:connector-curvature="0" />
          </g>
        </g>
      </g>
      <g
         id="g879">
        <g
           id="g881"
           clip-path="url(#clipPath885)">
          <g
             id="g887"
             transform="translate(205.907,563.902)">
            <path
               d="M 0,0 V 14.169 H 57.964 V 2.327"
               style="fill:none;stroke:#231f20;stroke-width:0.859;stroke-linecap:butt;stroke-linejoin:miter;stroke-miterlimit:10;stroke-dasharray:none;stroke-opacity:1"
               id="path889"
               inkscape:connector-curvature="0" />
          </g>
          <path
             d="m 262.153,570.743 1.718,-5.381 1.718,5.381 -1.718,-1.088 -1.718,1.088"
             style="fill:#231f20;fill-opacity:1;fill-rule:evenodd;stroke:none"
             id="path891"
             inkscape:connector-curvature="0" />
          <g
             id="g893"
             transform="translate(262.153,570.743)">
            <path
               d="M 0,0 1.718,-5.381 3.436,0 1.718,-1.088 Z m -56.246,-78.973 v -15.179"
               style="fill:none;stroke:#231f20;stroke-width:0.859;stroke-linecap:butt;stroke-linejoin:miter;stroke-miterlimit:10;stroke-dasharray:none;stroke-opacity:1"
               id="path895"
               inkscape:connector-curvature="0" />
          </g>
          <path
             d="m 204.19,480.578 1.717,-5.382 1.718,5.382 -1.718,-1.089 -1.717,1.089"
             style="fill:#231f20;fill-opacity:1;fill-rule:evenodd;stroke:none"
             id="path897"
             inkscape:connector-curvature="0" />
          <g
             id="g899"
             transform="translate(204.19,480.578)">
            <path
               d="M 0,0 1.717,-5.382 3.435,0 1.717,-1.089 Z M -11.163,8.302 V -6.842"
               style="fill:none;stroke:#231f20;stroke-width:0.859;stroke-linecap:butt;stroke-linejoin:miter;stroke-miterlimit:10;stroke-dasharray:none;stroke-opacity:1"
               id="path901"
               inkscape:connector-curvature="0" />
          </g>
          <path
             d="m 194.744,484.957 -1.717,5.353 -1.717,-5.353 1.717,1.059 1.717,-1.059"
             style="fill:#231f20;fill-opacity:1;fill-rule:evenodd;stroke:none"
             id="path903"
             inkscape:connector-curvature="0" />
          <g
             id="g905"
             transform="translate(194.744,484.957)">
            <path
               d="M 0,0 -1.717,5.353 -3.434,0 -1.717,1.059 Z M 82.008,6.813 V -8.366"
               style="fill:none;stroke:#231f20;stroke-width:0.859;stroke-linecap:butt;stroke-linejoin:miter;stroke-miterlimit:10;stroke-dasharray:none;stroke-opacity:1"
               id="path907"
               inkscape:connector-curvature="0" />
          </g>
          <path
             d="m 275.034,480.578 1.718,-5.382 1.718,5.382 -1.718,-1.089 -1.718,1.089"
             style="fill:#231f20;fill-opacity:1;fill-rule:evenodd;stroke:none"
             id="path909"
             inkscape:connector-curvature="0" />
          <g
             id="g911"
             transform="translate(275.034,480.578)">
            <path
               d="M 0,0 1.718,-5.382 3.436,0 1.718,-1.089 Z M -11.163,8.725 V -6.842"
               style="fill:none;stroke:#231f20;stroke-width:0.859;stroke-linecap:butt;stroke-linejoin:miter;stroke-miterlimit:10;stroke-dasharray:none;stroke-opacity:1"
               id="path913"
               inkscape:connector-curvature="0" />
          </g>
          <path
             d="m 265.589,484.957 -1.718,5.353 -1.718,-5.353 1.718,1.059 1.718,-1.059"
             style="fill:#231f20;fill-opacity:1;fill-rule:evenodd;stroke:none"
             id="path915"
             inkscape:connector-curvature="0" />
          <g
             id="g917"
             transform="translate(265.589,484.957)">
            <path
               d="M 0,0 -1.718,5.353 -3.436,0 -1.718,1.059 Z m -30.056,-34.406 v -19.953"
               style="fill:none;stroke:#231f20;stroke-width:0.859;stroke-linecap:butt;stroke-linejoin:miter;stroke-miterlimit:10;stroke-dasharray:none;stroke-opacity:1"
               id="path919"
               inkscape:connector-curvature="0" />
          </g>
          <path
             d="m 233.816,434.207 1.717,-5.382 1.718,5.382 -1.718,-1.088 -1.717,1.088"
             style="fill:#231f20;fill-opacity:1;fill-rule:evenodd;stroke:none"
             id="path921"
             inkscape:connector-curvature="0" />
          <g
             id="g923"
             transform="translate(233.816,434.207)">
            <path
               d="M 0,0 1.717,-5.382 3.435,0 1.717,-1.088 Z m 42.936,129.695 v 30.003"
               style="fill:none;stroke:#231f20;stroke-width:0.859;stroke-linecap:butt;stroke-linejoin:miter;stroke-miterlimit:10;stroke-dasharray:none;stroke-opacity:1"
               id="path925"
               inkscape:connector-curvature="0" />
          </g>
          <path
             d="m 278.47,589.292 -1.718,5.352 -1.718,-5.352 1.718,1.059 1.718,-1.059"
             style="fill:#231f20;fill-opacity:1;fill-rule:evenodd;stroke:none"
             id="path927"
             inkscape:connector-curvature="0" />
          <g
             id="g929"
             transform="translate(278.47,589.292)">
            <path
               d="M 0,0 -1.718,5.352 -3.436,0 -1.718,1.059 Z M -42.937,46.742 V 27.989"
               style="fill:none;stroke:#231f20;stroke-width:0.859;stroke-linecap:butt;stroke-linejoin:miter;stroke-miterlimit:10;stroke-dasharray:none;stroke-opacity:1"
               id="path931"
               inkscape:connector-curvature="0" />
          </g>
          <path
             d="m 233.816,620.978 1.717,-5.381 1.718,5.381 -1.718,-1.087 -1.717,1.087"
             style="fill:#231f20;fill-opacity:1;fill-rule:evenodd;stroke:none"
             id="path933"
             inkscape:connector-curvature="0" />
          <g
             id="g935"
             transform="translate(233.816,620.978)">
            <path
               d="M 0,0 1.717,-5.381 3.435,0 1.717,-1.087 Z"
               style="fill:none;stroke:#231f20;stroke-width:0.859;stroke-linecap:butt;stroke-linejoin:miter;stroke-miterlimit:10;stroke-dasharray:none;stroke-opacity:1"
               id="path937"
               inkscape:connector-curvature="0" />
          </g>
          <path
             d="m 102.861,491.77 h 51.523 v 72.132 h -51.523 z"
             style="fill:#eaeaea;fill-opacity:1;fill-rule:nonzero;stroke:none"
             id="path939"
             inkscape:connector-curvature="0" />
          <g
             id="g941"
             transform="translate(-12.96001)">
            <path
               d="m 115.821,491.77 h 51.523 v 72.132 h -51.523 z"
               style="fill:none;stroke:#231f20;stroke-width:0.859;stroke-linecap:butt;stroke-linejoin:miter;stroke-miterlimit:10;stroke-dasharray:none;stroke-opacity:1"
               id="path943"
               inkscape:connector-curvature="0" />
          </g>
          <path
             d="m 173.705,491.77 h 51.524 v 72.132 h -51.524 z"
             style="fill:#eaeaea;fill-opacity:1;fill-rule:nonzero;stroke:none"
             id="path945"
             inkscape:connector-curvature="0" />
          <g
             id="g947"
             transform="translate(-12.96001)">
            <path
               d="m 186.665,491.77 h 51.524 v 72.132 h -51.524 z"
               style="fill:none;stroke:#231f20;stroke-width:0.859;stroke-linecap:butt;stroke-linejoin:miter;stroke-miterlimit:10;stroke-dasharray:none;stroke-opacity:1"
               id="path949"
               inkscape:connector-curvature="0" />
          </g>
          <path
             d="m 244.55,491.77 h 51.523 v 72.132 H 244.55 Z"
             style="fill:#eaeaea;fill-opacity:1;fill-rule:nonzero;stroke:none"
             id="path951"
             inkscape:connector-curvature="0" />
          <g
             id="g953"
             transform="translate(-12.96001)">
            <path
               d="m 257.51,491.77 h 51.523 v 72.132 H 257.51 Z"
               style="fill:none;stroke:#231f20;stroke-width:0.859;stroke-linecap:butt;stroke-linejoin:miter;stroke-miterlimit:10;stroke-dasharray:none;stroke-opacity:1"
               id="path955"
               inkscape:connector-curvature="0" />
          </g>
          <path
             d="m 315.394,493.058 h 51.524 v 72.132 h -51.524 z"
             style="fill:#eaeaea;fill-opacity:1;fill-rule:nonzero;stroke:none"
             id="path957"
             inkscape:connector-curvature="0" />
          <g
             id="g959"
             transform="translate(-12.96001)">
            <path
               d="m 328.354,565.19 h 51.524 V 493.058 H 328.354 Z M 141.583,487.639 v -13.903 h 212.533"
               style="fill:none;stroke:#231f20;stroke-width:0.859;stroke-linecap:butt;stroke-linejoin:miter;stroke-miterlimit:10;stroke-dasharray:none;stroke-opacity:1"
               id="path961"
               inkscape:connector-curvature="0" />
          </g>
          <path
             d="m 130.34,483.669 -1.717,5.353 -1.718,-5.353 1.718,1.059 1.717,-1.059"
             style="fill:#231f20;fill-opacity:1;fill-rule:evenodd;stroke:none"
             id="path963"
             inkscape:connector-curvature="0" />
          <g
             id="g965"
             transform="translate(130.34,483.669)">
            <path
               d="M 0,0 -1.717,5.353 -3.435,0 -1.717,1.059 Z M 210.816,8.101 V -7.528"
               style="fill:none;stroke:#231f20;stroke-width:0.859;stroke-linecap:butt;stroke-linejoin:miter;stroke-miterlimit:10;stroke-dasharray:none;stroke-opacity:1"
               id="path967"
               inkscape:connector-curvature="0" />
          </g>
          <path
             d="m 339.438,480.578 1.718,-5.382 1.717,5.382 -1.717,-1.089 -1.718,1.089"
             style="fill:#231f20;fill-opacity:1;fill-rule:evenodd;stroke:none"
             id="path969"
             inkscape:connector-curvature="0" />
          <g
             id="g971"
             transform="translate(339.438,480.578)">
            <path
               d="M 0,0 1.718,-5.382 3.435,0 1.718,-1.089 Z m -204.375,84.612 v 12.881 h 57.964 V 86.86"
               style="fill:none;stroke:#231f20;stroke-width:0.859;stroke-linecap:butt;stroke-linejoin:miter;stroke-miterlimit:10;stroke-dasharray:none;stroke-opacity:1"
               id="path973"
               inkscape:connector-curvature="0" />
          </g>
          <path
             d="m 191.31,570.743 1.717,-5.381 1.717,5.381 -1.717,-1.088 -1.717,1.088"
             style="fill:#231f20;fill-opacity:1;fill-rule:evenodd;stroke:none"
             id="path975"
             inkscape:connector-curvature="0" />
          <g
             id="g977"
             transform="translate(191.31,570.743)">
            <path
               d="M 0,0 1.717,-5.381 3.434,0 1.717,-1.088 Z M -69.128,-6.841 V 25.361 H 149.846 V -2.964"
               style="fill:none;stroke:#231f20;stroke-width:0.859;stroke-linecap:butt;stroke-linejoin:miter;stroke-miterlimit:10;stroke-dasharray:none;stroke-opacity:1"
               id="path979"
               inkscape:connector-curvature="0" />
          </g>
          <path
             d="m 339.438,570.743 1.718,-5.381 1.717,5.381 -1.717,-1.088 -1.718,1.088"
             style="fill:#231f20;fill-opacity:1;fill-rule:evenodd;stroke:none"
             id="path981"
             inkscape:connector-curvature="0" />
          <g
             id="g983"
             transform="translate(339.438,570.743)">
            <path
               d="M 0,0 1.718,-5.381 3.435,0 1.718,-1.088 Z"
               style="fill:none;stroke:#231f20;stroke-width:0.859;stroke-linecap:butt;stroke-linejoin:miter;stroke-miterlimit:10;stroke-dasharray:none;stroke-opacity:1"
               id="path985"
               inkscape:connector-curvature="0" />
          </g>
          <g
             id="g987"
             transform="translate(-12.96001)">
            <text
               transform="matrix(1,0,0,-1,235.993,418.351)"
               style="font-variant:normal;font-weight:normal;font-size:8px;font-family:Times;-inkscape-font-specification:Times-Roman;writing-mode:lr-tb;fill:#231f20;fill-opacity:1;fill-rule:nonzero;stroke:none"
               id="text991"><tspan
                 x="0 4 8 10.224 12.888 15.112 18.912001"
                 y="0"
                 sodipodi:role="line"
                 id="tspan989">outflow</tspan></text>
          </g>
          <g
             id="g993"
             transform="translate(-12.96001)">
            <text
               transform="matrix(1,0,0,-1,237.377,638.167)"
               style="font-variant:normal;font-weight:normal;font-size:8px;font-family:Times;-inkscape-font-specification:Times-Roman;writing-mode:lr-tb;fill:#231f20;fill-opacity:1;fill-rule:nonzero;stroke:none"
               id="text997"><tspan
                 x="0 2.224 6.224 8.8879995 11.112 14.912"
                 y="0"
                 sodipodi:role="line"
                 id="tspan995">inflow</tspan></text>
          </g>
          <g
             id="g999"
             transform="translate(-12.96001)">
            <text
               transform="matrix(1,0,0,-1,128.577,525.359)"
               style="font-variant:normal;font-weight:normal;font-size:8px;font-family:Times;-inkscape-font-specification:Times-Roman;writing-mode:lr-tb;fill:#231f20;fill-opacity:1;fill-rule:nonzero;stroke:none"
               id="text1003"><tspan
                 x="0 3.9935999 7.9871998 10.2048 12.2048 16.1984 19.743999 69.073601 72.619202 76.612801 78.830399 82.823997 84.823997 88.817596 92.363197"
                 y="0"
                 sodipodi:role="line"
                 id="tspan1001">hot gascold gas</tspan></text>
          </g>
          <g
             id="g1005"
             transform="translate(-12.96001)">
            <text
               transform="matrix(1,0,0,-1,342.777,526.679)"
               style="font-variant:normal;font-weight:normal;font-size:8px;font-family:Times;-inkscape-font-specification:Times-Roman;writing-mode:lr-tb;fill:#231f20;fill-opacity:1;fill-rule:nonzero;stroke:none"
               id="text1009"><tspan
                 x="0 4.448 11.56 16.896"
                 y="0"
                 sodipodi:role="line"
                 id="tspan1007">SMBH</tspan></text>
          </g>
          <g
             id="g1011"
             transform="translate(-12.96001)">
            <text
               transform="matrix(1,0,0,-1,157.009,580.887)"
               style="font-variant:normal;font-weight:normal;font-size:8px;font-family:Times;-inkscape-font-specification:Times-Roman;writing-mode:lr-tb;fill:#231f20;fill-opacity:1;fill-rule:nonzero;stroke:none"
               id="text1015"><tspan
                 x="0 3.9960001 7.5440001 10.652 12.652 16.200001 20.195999 24.191999 26.412001 28.632 32.627998"
                 y="0"
                 sodipodi:role="line"
                 id="tspan1013">gas cooling</tspan></text>
          </g>
          <g
             id="g1017"
             transform="translate(-12.96001)">
            <text
               transform="matrix(1,0,0,-1,222.641,580.607)"
               style="font-variant:normal;font-weight:normal;font-size:8px;font-family:Times;-inkscape-font-specification:Times-Roman;writing-mode:lr-tb;fill:#231f20;fill-opacity:1;fill-rule:nonzero;stroke:none"
               id="text1021"><tspan
                 x="0 3.112 5.336 8.8879995 11.552 13.552 16.216 20.216 22.879999 29.104 32.655998 34.880001 37.104 41.104"
                 y="0"
                 sodipodi:role="line"
                 id="tspan1019">star formation</tspan></text>
          </g>
          <g
             id="g1023"
             transform="translate(-12.96001)">
            <text
               transform="matrix(1,0,0,-1,221.625,597.839)"
               style="font-variant:normal;font-weight:normal;font-size:8px;font-family:Times;-inkscape-font-specification:Times-Roman;writing-mode:lr-tb;fill:#231f20;fill-opacity:1;fill-rule:nonzero;stroke:none"
               id="text1027"><tspan
                 x="0 5.4559999 11.232 17.007999 19.007999 22.559999 26.112 29.664 32.327999 35.880001 38.104 40.327999 44.327999"
                 y="0"
                 sodipodi:role="line"
                 id="tspan1025">AGN accretion</tspan></text>
          </g>
          <g
             id="g1029"
             transform="translate(-12.96001)">
            <text
               transform="matrix(1,0,0,-1,183.961,463.879)"
               style="font-variant:normal;font-weight:normal;font-size:8px;font-family:Times;-inkscape-font-specification:Times-Roman;writing-mode:lr-tb;fill:#231f20;fill-opacity:1;fill-rule:nonzero;stroke:none"
               id="text1033"><tspan
                 x="0 2.664 6.2160001 9.7679996 13.768 17.768 21.32 24.872 28.872 30.872 34.872002 37.535999 39.535999 43.088001 47.088001 50.639999 53.16 57.16 60.639999 62.639999 64.639999 70.863998 74.416 77.528 80.639999 82.639999 86.192001 90.192001 94.192001 96.192001 102.416 105.968 108.192 111.744 113.968"
                 y="0"
                 sodipodi:role="line"
                 id="tspan1031">feedback of energy, mass and metals</tspan></text>
          </g>
          <g
             id="g1035"
             transform="translate(-12.96001)">
            <text
               transform="matrix(1,0,0,-1,275.937,529.871)"
               style="font-variant:normal;font-weight:normal;font-size:8px;font-family:Times;-inkscape-font-specification:Times-Roman;writing-mode:lr-tb;fill:#231f20;fill-opacity:1;fill-rule:nonzero;stroke:none"
               id="text1039"><tspan
                 x="0 3.112 5.336 8.8879995 11.552"
                 y="0"
                 sodipodi:role="line"
                 id="tspan1037">stars</tspan></text>
          </g>
          <g
             id="g1041"
             transform="translate(-12.96001)">
            <text
               transform="matrix(1,0,0,-1,266.785,520.871)"
               style="font-variant:normal;font-weight:normal;font-size:8px;font-family:Times;-inkscape-font-specification:Times-Roman;writing-mode:lr-tb;fill:#231f20;fill-opacity:1;fill-rule:nonzero;stroke:none"
               id="text1045"><tspan
                 x="0 2.664 6.0159998 9.8559999 13.856 16.08 20.08 22.304001 26.304001 30.304001"
                 y="0"
                 sodipodi:role="line"
                 id="tspan1043">(evolving)</tspan></text>
          </g>
        </g>
      </g>
    </g>
  </g>
</svg>
