<?xml version="1.0" encoding="UTF-8" standalone="no"?>
<svg
   xmlns:dc="http://purl.org/dc/elements/1.1/"
   xmlns:cc="http://creativecommons.org/ns#"
   xmlns:rdf="http://www.w3.org/1999/02/22-rdf-syntax-ns#"
   xmlns:svg="http://www.w3.org/2000/svg"
   xmlns="http://www.w3.org/2000/svg"
   xmlns:sodipodi="http://sodipodi.sourceforge.net/DTD/sodipodi-0.dtd"
   xmlns:inkscape="http://www.inkscape.org/namespaces/inkscape"
   inkscape:version="1.0beta2 (2b71d25, 2019-12-03)"
   sodipodi:docname="star-formation-rate.svg"
   viewBox="0 0 483.40799 319.98801"
   height="319.98801"
   width="483.40799"
   xml:space="preserve"
   id="svg833"
   version="1.1"><metadata
     id="metadata839"><rdf:RDF><cc:Work
         rdf:about=""><dc:format>image/svg+xml</dc:format><dc:type
           rdf:resource="http://purl.org/dc/dcmitype/StillImage" /><dc:title></dc:title></cc:Work></rdf:RDF></metadata><defs
     id="defs837"><clipPath
       id="clipPath851"
       clipPathUnits="userSpaceOnUse"><path
         inkscape:connector-curvature="0"
         id="path849"
         d="M 0,0 H 468.028 V 698.717 H 0 Z" /></clipPath><clipPath
       id="clipPath1915"
       clipPathUnits="userSpaceOnUse"><path
         inkscape:connector-curvature="0"
         id="path1913"
         d="m 52.89899,91.626 h 362.556 v 239.991 h -362.556 z" /></clipPath><clipPath
       id="clipPath1927"
       clipPathUnits="userSpaceOnUse"><path
         inkscape:connector-curvature="0"
         id="path1925"
         d="M 0,0 H 468.028 V 698.717 H 0 Z" /></clipPath></defs><sodipodi:namedview
     inkscape:current-layer="g2015"
     inkscape:window-maximized="0"
     inkscape:window-y="1110"
     inkscape:window-x="55"
     inkscape:cy="139.39425"
     inkscape:cx="180.28836"
     inkscape:zoom="1.1798096"
     fit-margin-bottom="0"
     fit-margin-right="0"
     fit-margin-left="0"
     fit-margin-top="0"
     showgrid="false"
     id="namedview835"
     inkscape:window-height="972"
     inkscape:window-width="1612"
     inkscape:pageshadow="2"
     inkscape:pageopacity="0"
     guidetolerance="10"
     gridtolerance="10"
     objecttolerance="10"
     borderopacity="1"
     inkscape:document-rotation="0"
     bordercolor="#666666"
     pagecolor="#ffffff" /><g
     transform="matrix(1.3333333,0,0,-1.3333333,-70.531985,442.15599)"
     inkscape:label="star-formation-rate"
     inkscape:groupmode="layer"
     id="g841"><g
       id="g843" /><g
       id="g845" /><g
       id="g1909"><g
         clip-path="url(#clipPath1915)"
         id="g1911"><g
           transform="translate(415.105,331.267)"
           id="g1917"><path
             inkscape:connector-curvature="0"
             id="path1919"
             style="fill:none;stroke:#231f20;stroke-width:0.7;stroke-linecap:butt;stroke-linejoin:round;stroke-miterlimit:10;stroke-dasharray:none;stroke-opacity:1"
             d="M 0,0 H -3.567 M 0,-10.862 H -3.567 M 0,-21.725 H -3.567 M 0,-32.586 H -7.134 M 0,-43.286 H -3.567 M 0,-54.311 H -3.567 M 0,-65.011 H -3.567 M 0,-75.873 H -3.567 M 0,-86.735 H -7.134 M 0,-97.597 H -3.567 M 0,-108.459 H -3.567 M 0,-119.321 H -3.567 M 0,-130.183 H -3.567 M 0,-141.046 H -7.134 M 0,-151.907 H -3.567 M 0,-162.77 H -3.567 M 0,-173.632 H -3.567 M 0,-184.495 H -3.567 M 0,-195.356 H -7.134 M 0,-206.219 H -3.567 M 0,-212.703 V 0 m -312.084,0 h 3.566 m -3.566,-10.862 h 3.566 m -3.566,-10.863 h 3.566 m -14.915,-7.619 h 1.784 l 1.621,0.324 m -3.405,0 h 3.405 m -1.297,-2.269 0.649,-0.325 0.648,-0.648 0.325,-1.135 v -0.648 l -0.325,-0.973 -0.648,-0.649 -0.649,-0.324 m -2.108,6.971 -0.648,-3.242 0.648,0.648 0.974,0.325 h 1.134 l 0.972,-0.325 0.65,-0.648 0.324,-1.135 v -0.648 l -0.324,-0.973 -0.65,-0.649 -0.972,-0.324 h -1.134 l -0.974,0.324 -0.323,0.325 -0.325,0.648 v 0.325 l 0.325,0.324 0.323,-0.324 -0.323,-0.325 m -3.081,-0.648 -0.324,-0.325 0.324,-0.324 0.324,0.324 -0.324,0.325 m -4.702,-0.649 0.649,0.324 0.324,0.325 0.487,0.648 0.324,1.621 v 1.135 l -0.324,1.621 -0.487,0.649 -0.324,0.324 -0.649,0.324 m -0.648,0 -0.973,-0.324 -0.648,-0.973 -0.487,-1.621 v -1.135 l 0.487,-1.621 0.648,-0.973 0.973,-0.324 h 0.648 l 0.973,0.324 0.811,0.973 0.324,1.621 v 1.135 l -0.324,1.621 -0.811,0.973 -0.973,0.324 h -0.648 l -0.649,-0.324 -0.324,-0.324 -0.324,-0.649 -0.324,-1.621 v -1.135 l 0.324,-1.621 0.324,-0.648 0.324,-0.325 0.649,-0.324 m -10.538,2.918 h 6.161 m 24.48,0.487 h 7.134 m -7.134,-10.7 h 3.566 m -3.566,-11.025 h 3.566 m -3.566,-10.7 h 3.566 m -3.566,-10.862 h 3.566 m -14.59,-14.429 h 3.08 m -1.621,6.647 v -6.647 m -1.459,5.675 0.649,0.324 1.134,0.973 v -6.972 m -11.186,2.919 h 6.16 m 14.267,0.648 h 7.134 m -7.134,-10.862 h 3.566 m -3.566,-10.862 h 3.566 m -3.566,-10.862 h 3.566 m -3.566,-10.862 h 3.566 m -14.915,-7.782 h 1.784 l 1.621,0.486 m -3.405,0 h 3.405 m -1.297,-2.432 0.649,-0.324 0.648,-0.649 0.325,-1.135 v -0.648 l -0.325,-0.973 -0.648,-0.648 -0.649,-0.324 m -2.108,7.133 -0.648,-3.405 0.648,0.649 0.974,0.324 h 1.134 l 0.972,-0.324 0.65,-0.649 0.324,-1.135 v -0.648 l -0.324,-0.973 -0.65,-0.648 -0.972,-0.324 h -1.134 l -0.974,0.324 -0.323,0.324 -0.325,0.648 v 0.325 l 0.325,0.324 0.323,-0.324 -0.323,-0.325 m -3.081,-0.648 -0.324,-0.324 0.324,-0.324 0.324,0.324 -0.324,0.324 m -6.323,-0.648 h 3.081 m -1.784,6.647 v -6.647 m -1.297,5.674 0.649,0.324 0.972,1.135 v -7.133 m -11.186,2.918 h 6.161 m 24.48,0.648 h 7.134 m -7.134,-10.861 h 3.566 m -3.566,-10.863 h 3.566 m -3.566,-10.862 h 3.566 m -3.566,-10.863 h 3.566 m -14.59,-13.455 1.783,-0.972 h 1.297 l 0.325,0.324 0.324,0.648 v 0.649 m -4.702,-0.974 0.325,0.325 h 0.648 l 1.783,-0.648 h 0.972 l 0.65,0.323 0.324,0.325 m -1.621,6.16 0.647,-0.486 0.325,-0.324 0.325,-0.649 v -0.648 l -0.325,-0.648 -0.972,-0.649 -1.459,-0.648 m -1.297,2.593 0.323,-0.324 -0.323,-0.324 -0.325,0.324 v 0.324 l 0.325,0.649 0.323,0.324 0.974,0.486 H -321 l 0.972,-0.486 0.325,-0.324 0.324,-0.649 v -0.648 l -0.324,-0.648 -0.973,-0.649 -1.783,-0.648 -0.649,-0.487 -0.648,-0.648 -0.325,-0.973 v -0.972 m -8.43,3.08 h 6.16 m 14.267,0.486 h 7.134 m -7.134,-10.863 h 3.566 m -3.566,-6.484 V 0 M -19.455,0 V -7.133 M -43.935,0 V -3.566 M -68.254,0 V -3.566 M -92.733,0 V -3.566 M -117.052,0 V -7.133 M -141.37,0 V -3.566 M -165.851,0 V -3.566 M -190.168,0 V -3.566 M -214.649,0 V -7.133 M -238.967,0 V -3.566 M -263.448,0 V -3.566 M -287.766,0 V -3.566 M -312.084,0 v -7.133 m 0,7.133 H 0 m -19.131,-225.997 0.65,0.324 0.647,0.649 0.324,0.972 v 0.324 l -0.324,1.135 -0.647,0.649 -0.65,0.324 m -0.324,2.757 -0.811,-0.326 -0.648,-0.81 -0.324,-0.648 -0.324,-1.297 v -2.108 l 0.324,-0.972 0.648,-0.649 0.811,-0.324 m 1.945,5.998 -0.324,-0.324 0.324,-0.324 0.324,0.324 v 0.324 l -0.324,0.81 -0.647,0.326 h -0.974 l -1.135,-0.326 -0.648,-0.81 -0.324,-0.648 -0.325,-1.297 v -2.108 l 0.325,-0.972 0.648,-0.649 1.135,-0.324 h 0.648 l 0.973,0.324 0.648,0.649 0.325,0.972 v 0.324 l -0.325,1.135 -0.648,0.649 -0.973,0.324 h -0.324 l -1.135,-0.324 -0.648,-0.649 -0.324,-1.135 m 2.107,11.025 v 7.133 m -24.48,-7.133 v 3.566 m -24.319,-3.566 v 3.566 m -24.479,-3.566 v 3.566 m -24.643,-16.86 h 2.27 m -0.973,7.134 -3.729,-5.189 h 5.512 m -1.783,5.189 v -7.134 m -0.325,6.323 v -6.323 m -0.648,13.294 v 7.133 m -24.318,-7.133 v 3.566 m -24.481,-3.566 v 3.566 m -24.317,-3.566 v 3.566 m -25.778,-15.887 1.621,-0.973 h 1.459 l 0.324,0.324 0.325,0.649 v 0.648 m -4.702,-0.973 0.324,0.325 h 0.649 l 1.621,-0.649 h 1.135 l 0.648,0.324 0.325,0.325 m -1.784,6.161 0.811,-0.326 0.324,-0.485 0.324,-0.649 v -0.649 l -0.324,-0.648 -1.135,-0.649 -1.297,-0.648 m -1.297,2.594 0.325,-0.324 -0.325,-0.325 -0.324,0.325 v 0.324 l 0.324,0.649 0.325,0.485 0.972,0.326 h 1.297 l 1.135,-0.326 0.324,-0.485 0.325,-0.649 v -0.649 l -0.325,-0.648 -0.973,-0.649 -1.783,-0.648 -0.648,-0.486 -0.649,-0.649 -0.324,-0.972 v -0.973 m 2.27,13.294 v 7.133 m -24.318,-7.133 v 3.566 m -24.481,-3.566 v 3.566 m -24.318,-3.566 v 3.566 m -23.994,-16.86 0.648,0.324 0.325,0.324 0.324,0.649 0.324,1.783 v 0.973 l -0.324,1.621 -0.324,0.649 -0.325,0.485 -0.648,0.326 m -0.811,0 -0.972,-0.326 -0.649,-1.134 -0.324,-1.621 v -0.973 l 0.324,-1.783 0.649,-0.973 0.972,-0.324 h 0.811 l 0.973,0.324 0.648,0.973 0.324,1.783 v 0.973 l -0.324,1.621 -0.648,1.134 -0.973,0.326 h -0.811 l -0.648,-0.326 -0.324,-0.485 -0.324,-0.649 -0.325,-1.621 v -0.973 l 0.325,-1.783 0.324,-0.649 0.324,-0.324 0.648,-0.324 m 0.487,13.294 v 7.133 m 0,-7.133 H 0 m -312.084,0 H 0 V 0 H -312.084 V -212.703 H 0 m -137.642,-21.886 h 2.595 m -1.297,2.431 v -5.837 l 0.324,-0.972 0.324,-0.324 m -0.973,7.133 v -5.837 l 0.325,-0.972 0.648,-0.324 h 0.649 l 0.81,0.324 0.324,0.648 m -8.105,-0.972 h 2.269 m -2.269,4.702 h 2.593 m -0.648,2.431 -0.324,-0.325 -0.325,-0.647 v -6.161 m 1.297,6.808 -0.324,-0.323 0.324,-0.324 0.324,0.324 v 0.323 l -0.324,0.325 h -0.648 l -0.649,-0.325 -0.325,-0.647 v -6.161 m -4.701,0 h 2.271 m -2.271,4.702 h 1.298 m 0,0 v -4.702 m -0.324,4.702 v -4.702 m 0,7.133 -0.325,-0.325 0.325,-0.323 0.324,0.323 -0.324,0.325 m -4.702,-7.133 h 2.269 m -5.998,0 h 2.432 m -2.432,7.133 h 1.297 m 2.432,-2.431 0.648,-0.326 0.324,-0.648 v -3.728 m -3.404,3.728 0.649,0.648 1.134,0.326 h 0.649 l 0.972,-0.326 0.325,-0.648 v -3.728 m -3.729,7.133 v -7.133 m -0.324,7.133 v -7.133 m -6.324,3.728 0.325,-0.324 0.649,-0.324 1.621,-0.649 0.648,-0.324 0.325,-0.324 v -1.135 l -0.325,-0.324 -0.648,-0.324 h -1.298 l -0.647,0.324 -0.325,0.324 -0.325,0.648 v -1.296 l 0.325,0.648 m 2.918,3.404 0.325,0.65 v -1.298 l -0.325,0.648 -0.325,0.324 -0.647,0.326 h -1.297 l -0.649,-0.326 -0.325,-0.324 v -0.648 l 0.325,-0.324 0.649,-0.325 1.621,-0.648 0.648,-0.324 0.325,-0.487 m -6.648,-1.296 h 1.297 m -2.268,7.133 h 1.296 m -2.432,-2.431 -0.649,-0.326 -0.648,-0.648 -0.324,-0.973 v -0.648 l 0.324,-1.135 0.648,-0.648 0.649,-0.324 m 2.107,3.728 -0.648,0.648 -0.811,0.326 h -0.648 l -0.973,-0.326 -0.648,-0.648 -0.324,-0.973 v -0.648 l 0.324,-1.135 0.648,-0.648 0.973,-0.324 h 0.648 l 0.811,0.324 0.648,0.648 m 0.325,6.161 v -7.133 m -0.325,7.133 v -7.133 m -8.43,4.702 -0.648,-0.326 -0.811,-0.648 -0.325,-0.973 v -0.648 l 0.325,-1.135 0.811,-0.648 0.648,-0.324 m 1.946,2.755 v 0.973 l -0.324,0.648 m -3.406,-1.621 h 4.054 v 0.649 l -0.324,0.648 -0.324,0.324 -0.649,0.326 h -0.973 l -1.134,-0.326 -0.65,-0.648 -0.323,-0.973 v -0.648 l 0.323,-1.135 0.65,-0.648 1.134,-0.324 h 0.649 l 0.973,0.324 0.648,0.648 m -10.376,-0.972 h 2.271 m -2.271,4.702 h 1.297 m 0,-1.947 0.324,0.973 0.65,0.648 0.647,0.326 h 1.136 l 0.324,-0.326 v -0.324 l -0.324,-0.324 -0.324,0.324 0.324,0.324 m -2.757,0.326 v -4.702 m -0.323,4.702 v -4.702 m -173.795,189.034 v 2.269 m -10.863,-2.269 v 2.269 m 0,0 h 10.863 m -10.863,-0.324 h 10.863 m -10.214,-5.999 1.46,0.648 0.972,0.325 1.621,0.325 h 1.46 l 1.621,-0.325 0.972,-0.325 1.46,-0.648 m -10.215,-0.811 0.649,0.811 0.973,0.648 1.459,0.65 1.621,0.323 h 1.46 l 1.621,-0.323 1.297,-0.65 1.135,-0.648 0.648,-0.811 m -7.62,-1.945 0.487,0.162 h 0.649 l 0.485,-0.162 0.162,-0.162 0.163,-0.487 m -4.216,0 0.163,0.487 0.486,0.162 h 0.487 l 0.486,-0.162 0.162,-0.487 0.163,0.487 0.485,0.324 0.325,0.162 h 0.649 l 0.485,-0.162 0.162,-0.162 0.163,-0.649 v -0.81 l -0.163,-0.649 -0.162,-0.162 -0.485,-0.162 h -0.163 l -0.163,0.162 0.163,0.162 0.163,-0.162 m -2.595,0 0.162,0.162 0.163,-0.162 -0.163,-0.162 h -0.162 l -0.486,0.162 -0.162,0.162 -0.163,0.649 v 0.81 l 0.163,0.649 0.486,0.162 h 0.487 l 0.486,-0.162 0.162,-0.649 v -0.648 m 0.648,-6.16 v 3.566 m 0.325,-7.781 0.323,-0.648 0.649,-0.812 0.973,-0.323 h 0.81 l 0.974,0.323 0.648,0.812 0.324,0.648 m -3.729,1.945 0.324,-0.324 0.325,0.324 -0.325,0.324 h -0.324 l -0.649,-0.648 -0.323,-0.648 v -0.973 l 0.323,-0.973 0.649,-0.81 0.973,-0.325 h 0.81 l 0.974,0.325 0.648,0.81 0.324,0.973 v 0.648 l -0.324,0.973 -0.648,0.648 m 3.404,-11.835 v 2.432 m -7.133,-2.432 v 1.459 m 0,1.946 0.323,0.649 0.649,0.81 0.973,0.324 h 0.81 l 0.974,-0.324 0.648,-0.81 0.324,-0.649 m -3.729,-1.946 -0.649,0.649 -0.323,0.648 v 0.649 l 0.323,0.972 0.649,0.811 0.973,0.324 h 0.81 l 0.974,-0.324 0.648,-0.811 0.324,-0.972 v -0.649 l -0.324,-0.648 -0.648,-0.649 m -3.729,0 h 7.133 m -7.133,-0.324 h 7.133 m -2.432,-4.701 v 2.27 m 0,-7.134 v 2.108 m -7.133,3.729 v 1.297 m 0,-7.134 v 1.459 m 0,4.702 h 7.133 m -7.133,-0.324 h 7.133 m -7.133,0 7.133,-2.432 m -7.133,-2.271 7.133,2.271 m -7.133,-1.946 6.161,1.946 m -6.161,-2.271 h 7.133 m -3.242,-4.539 v 1.784 m -4.053,-0.973 h 4.053 m -3.405,-0.811 -0.162,0.324 -0.649,0.649 h 4.216 m -1.784,-6.647 v 3.567 m 5.026,-9.566 v 2.433 m -4.701,-2.433 v 1.46 m 1.945,0 -0.973,0.324 -0.649,0.649 -0.323,0.648 v 0.973 l 0.323,0.324 h 0.326 l 0.323,-0.324 -0.323,-0.324 -0.326,0.324 m -0.323,-2.594 h 4.701 m -4.701,-0.324 h 4.701 m -4.701,-4.054 v 1.946 m 0,-5.35 v 1.945 m 0,2.756 4.701,-2.107 1.297,-0.649 0.811,-0.648 0.324,-0.649 v -0.324 l -0.324,-0.324 -0.324,0.324 0.324,0.324 m -6.809,0.325 4.053,1.621 m -4.053,-1.946 4.701,1.946 m 0.973,-6.161 h 0.324 v 0.162 h -0.324 v -0.162 m -0.162,0 0.162,-0.162 h 0.324 l 0.162,0.162 v 0.162 l -0.162,0.324 h -0.324 l -0.162,-0.324 v -0.162 m -1.783,-0.162 0.162,-0.648 0.486,-0.649 0.487,-0.324 0.648,-0.162 h 0.648 l 0.649,0.162 0.486,0.324 0.487,0.649 0.162,0.648 v 0.648 l -0.162,0.487 -0.487,0.648 -0.486,0.487 -0.649,0.162 h -0.648 l -0.648,-0.162 -0.487,-0.487 -0.486,-0.648 -0.162,-0.487 v -0.648 m 0.972,-5.513 v 2.433 m 0,-7.134 v 1.946 m -7.133,3.729 v 1.459 m 0,-7.134 v 1.297 m 0,4.702 h 7.133 m -7.133,-0.324 h 7.133 m -7.133,0 7.133,-2.27 m -7.133,-2.432 7.133,2.432 m -7.133,-2.108 6.161,2.108 m -6.161,-2.432 h 7.133" /></g></g></g><g
       id="g1921"><g
         clip-path="url(#clipPath1927)"
         id="g1923"><g
           transform="translate(53.89799,206.758)"
           id="g1929"><path
             inkscape:connector-curvature="0"
             id="path1931"
             style="fill:none;stroke:#231f20;stroke-width:0.7;stroke-linecap:butt;stroke-linejoin:round;stroke-miterlimit:10;stroke-dasharray:none;stroke-opacity:1"
             d="m 0,0 1.46,-0.649 0.972,-0.324 1.621,-0.324 h 1.46 L 7.134,-0.973 8.106,-0.649 9.566,0 M -0.649,0.648 0,0 0.973,-0.649 2.432,-1.297 4.053,-1.622 h 1.46 L 7.134,-1.297 8.431,-0.649 9.566,0 10.214,0.648 M -0.649,-3.729 10.214,-9.727 m -2.756,-1.298 1.135,-2.107 m -1.135,0 1.135,2.107 M 6.81,-11.997 h 2.431 m -6.16,-4.702 0.323,-0.649 0.973,-0.648 1.136,-0.486 4.701,-1.297 m -2.432,3.08 -0.324,0.648 -0.973,0.649 -0.972,0.324 h -1.46 l -0.649,-0.324 m 2.757,-3.405 0.973,0.325 0.324,0.486 0.324,0.648 v 0.649 l -0.324,0.973 -0.973,0.648 -0.972,0.325 H 4.377 L 3.73,-15.078 3.404,-15.402 3.081,-16.051 v -0.648 l 0.323,-0.973 0.973,-0.81 1.136,-0.325 4.701,-1.296 m -9.403,2.918 0.324,-0.325 0.325,0.325 -0.325,0.486 -0.324,-0.486 m 9.403,-6.323 v 2.432 m -10.863,-2.432 v 2.432 m 0,-2.107 h 10.863 m -10.863,-0.325 h 10.863 m -3.08,-6.647 0.324,0.325 0.324,0.972 v 1.621 l 0.324,1.136 0.649,0.323 h 0.324 l 0.811,-0.323 0.324,-1.136 v -1.946 L 9.89,-30.155 9.079,-30.642 H 8.755 l -0.649,0.487 -0.324,0.972 m -1.946,-0.324 0.325,-0.323 0.649,-0.325 h 0.324 l 0.648,0.325 0.324,0.972 v 1.621 l 0.325,1.136 0.324,0.323 m -5.025,-1.134 -0.326,0.485 -0.323,0.649 h 0.323 v -0.649 m 2.757,-0.81 -0.648,0.325 h -1.46 l -0.649,-0.325 m 0,-1.946 0.649,-0.324 h 1.46 l 0.648,0.324 m -3.08,0.649 0.323,-0.649 0.326,-0.324 0.647,-0.323 h 0.649 l 0.81,0.323 0.325,0.324 0.324,0.649 v 0.648 l -0.324,0.649 -0.325,0.325 -0.81,0.485 H 4.377 L 3.73,-26.912 3.404,-27.237 3.081,-27.886 v -0.648 m 4.701,-5.674 -0.324,0.648 -0.648,0.649 -0.974,0.324 H 5.026 L 4.053,-32.911 3.404,-33.56 3.081,-34.208 m 0,-0.81 0.323,-0.973 0.649,-0.649 0.973,-0.324 h 0.81 l 0.974,0.324 0.648,0.649 0.324,0.973 v 0.81 l -0.324,0.973 -0.648,0.648 -0.974,0.324 h -0.81 l -0.973,-0.324 -0.649,-0.648 -0.323,-0.973 v -0.81 l 0.323,-0.649 0.649,-0.648 0.973,-0.325 h 0.81 l 0.974,0.325 0.648,0.648 0.324,0.649 m 0,-5.999 v 2.432 m -7.133,-2.432 v 1.297 m 0,0 h 7.133 m -7.133,-0.324 h 7.133" /></g><path
           inkscape:connector-curvature="0"
           id="path1933"
           style="fill:#231f20;fill-opacity:1;fill-rule:evenodd;stroke:none"
           d="m 287.677,267.229 0.487,0.162 0.486,0.487 0.486,0.486 0.162,0.486 v 0.649 l -0.162,0.648 -0.486,0.486 -0.486,0.325 -0.487,0.162 h -0.648 l -0.649,-0.162 -0.487,-0.325 -0.324,-0.486 -0.161,-0.648 v -0.649 l 0.161,-0.486 0.324,-0.486 0.487,-0.487 0.649,-0.162 h 0.648" /><path
           inkscape:connector-curvature="0"
           id="path1935"
           style="fill:#231f20;fill-opacity:1;fill-rule:evenodd;stroke:none"
           d="m 343.285,246.477 0.486,0.163 0.487,0.486 0.486,0.486 0.162,0.486 v 0.649 l -0.162,0.649 -0.486,0.486 -0.487,0.325 -0.486,0.162 h -0.65 l -0.647,-0.162 -0.486,-0.325 -0.325,-0.486 -0.163,-0.649 v -0.649 l 0.163,-0.486 0.325,-0.486 0.486,-0.486 0.647,-0.163 h 0.65" /><path
           inkscape:connector-curvature="0"
           id="path1937"
           style="fill:#231f20;fill-opacity:1;fill-rule:evenodd;stroke:none"
           d="m 383.168,250.855 0.647,0.162 0.486,0.486 0.326,0.487 0.162,0.486 v 0.649 l -0.162,0.648 -0.326,0.486 -0.486,0.325 -0.647,0.162 h -0.488 l -0.648,-0.162 -0.486,-0.325 -0.325,-0.486 -0.324,-0.648 v -0.649 l 0.649,-0.973 0.486,-0.486 0.648,-0.162 h 0.488" /><path
           inkscape:connector-curvature="0"
           id="path1939"
           style="fill:#231f20;fill-opacity:1;fill-rule:evenodd;stroke:none"
           d="m 120.368,193.788 0.486,0.162 0.486,0.324 0.487,0.487 0.162,0.648 v 0.648 l -0.162,0.488 -0.487,0.486 -0.486,0.485 -0.486,0.163 h -0.649 l -0.648,-0.163 -0.486,-0.485 -0.325,-0.486 -0.162,-0.488 v -0.648 l 0.162,-0.648 0.325,-0.487 0.486,-0.324 0.648,-0.162 h 0.649" /><path
           inkscape:connector-curvature="0"
           id="path1941"
           style="fill:#231f20;fill-opacity:1;fill-rule:evenodd;stroke:none"
           d="m 142.254,222.646 0.648,0.162 0.488,0.324 0.323,0.486 0.163,0.649 v 0.648 l -0.163,0.486 -0.323,0.65 -0.488,0.323 -0.648,0.162 h -0.649 l -0.485,-0.162 -0.488,-0.323 -0.485,-0.65 -0.163,-0.486 v -0.648 l 0.163,-0.649 0.485,-0.486 0.488,-0.324 0.485,-0.162 h 0.649" /><path
           inkscape:connector-curvature="0"
           id="path1943"
           style="fill:#231f20;fill-opacity:1;fill-rule:evenodd;stroke:none"
           d="m 169.166,238.858 0.486,0.162 0.487,0.324 0.324,0.486 0.324,0.649 v 0.648 l -0.324,0.486 -0.324,0.487 -0.487,0.486 -0.486,0.162 h -0.648 l -0.649,-0.162 -0.486,-0.486 -0.324,-0.487 -0.162,-0.486 v -0.648 l 0.162,-0.649 0.324,-0.486 0.486,-0.324 0.649,-0.162 h 0.648" /><path
           inkscape:connector-curvature="0"
           id="path1945"
           style="fill:#231f20;fill-opacity:1;fill-rule:evenodd;stroke:none"
           d="m 176.462,274.038 0.487,0.324 0.486,0.324 0.486,0.486 0.163,0.649 v 0.486 l -0.163,0.649 -0.486,0.487 -0.486,0.323 -0.487,0.163 h -0.648 l -0.648,-0.163 -0.487,-0.323 -0.324,-0.487 -0.163,-0.649 v -0.486 l 0.163,-0.649 0.324,-0.486 0.487,-0.324 0.648,-0.324 h 0.648" /><path
           inkscape:connector-curvature="0"
           id="path1947"
           style="fill:#231f20;fill-opacity:1;fill-rule:evenodd;stroke:none"
           d="m 237.42,295.439 0.487,0.324 0.485,0.324 0.486,0.486 0.163,0.487 v 0.648 l -0.163,0.648 -0.486,0.487 -0.485,0.324 -0.487,0.162 h -0.649 l -0.648,-0.162 -0.487,-0.324 -0.324,-0.487 -0.162,-0.648 v -0.648 l 0.162,-0.487 0.324,-0.486 0.487,-0.324 0.648,-0.324 h 0.649" /><path
           inkscape:connector-curvature="0"
           id="path1949"
           style="fill:#231f20;fill-opacity:1;fill-rule:evenodd;stroke:none"
           d="m 298.378,254.908 0.486,0.162 0.648,0.324 0.325,0.486 0.162,0.649 v 0.648 l -0.162,0.487 -0.325,0.486 -0.648,0.487 -0.486,0.161 h -0.649 l -0.649,-0.161 -0.486,-0.487 -0.324,-0.486 -0.162,-0.487 v -0.648 l 0.162,-0.649 0.324,-0.486 0.486,-0.324 0.649,-0.162 h 0.649" /><path
           inkscape:connector-curvature="0"
           id="path1951"
           style="fill:#231f20;fill-opacity:1;fill-rule:evenodd;stroke:none"
           d="m 110.479,198.814 0.647,0.161 0.488,0.325 0.324,0.487 0.324,0.648 v 0.649 l -0.324,0.486 -0.324,0.486 -0.488,0.325 -0.647,0.324 h -0.487 l -0.649,-0.324 -0.486,-0.325 -0.325,-0.486 -0.161,-0.486 v -0.649 l 0.161,-0.648 0.325,-0.487 0.486,-0.325 0.649,-0.161 h 0.487" /><path
           inkscape:connector-curvature="0"
           id="path1953"
           style="fill:#231f20;fill-opacity:1;fill-rule:evenodd;stroke:none"
           d="m 251.524,264.797 0.648,0.163 0.488,0.324 0.323,0.486 0.162,0.649 v 0.648 l -0.162,0.486 -0.323,0.487 -0.488,0.486 -0.648,0.162 h -0.648 l -0.487,-0.162 -0.648,-0.486 -0.324,-0.487 -0.163,-0.486 v -0.648 l 0.163,-0.649 0.324,-0.486 0.648,-0.324 0.487,-0.163 h 0.648" /><path
           inkscape:connector-curvature="0"
           id="path1955"
           style="fill:#231f20;fill-opacity:1;fill-rule:evenodd;stroke:none"
           d="m 304.701,252.8 0.647,0.162 0.487,0.487 0.325,0.486 0.162,0.486 v 0.649 l -0.162,0.648 -0.325,0.487 -0.487,0.324 -0.647,0.162 h -0.65 l -0.486,-0.162 -0.648,-0.324 -0.325,-0.487 -0.162,-0.648 v -0.649 l 0.162,-0.486 0.325,-0.486 0.648,-0.487 0.486,-0.162 h 0.65" /><path
           inkscape:connector-curvature="0"
           id="path1957"
           style="fill:#231f20;fill-opacity:1;fill-rule:evenodd;stroke:none"
           d="m 137.39,207.892 0.649,0.325 0.486,0.324 0.324,0.486 0.162,0.65 v 0.485 l -0.162,0.648 -0.324,0.488 -0.486,0.323 -0.649,0.163 h -0.648 l -0.486,-0.163 -0.649,-0.323 -0.324,-0.488 -0.162,-0.648 v -0.485 l 0.162,-0.65 0.324,-0.486 0.649,-0.324 0.486,-0.163 h 0.648" /><path
           inkscape:connector-curvature="0"
           id="path1959"
           style="fill:#231f20;fill-opacity:1;fill-rule:evenodd;stroke:none"
           d="m 164.141,222.321 0.648,0.163 0.486,0.324 0.325,0.486 0.324,0.649 v 0.648 l -0.324,0.486 -0.325,0.487 -0.486,0.487 -0.648,0.161 h -0.487 l -0.648,-0.161 -0.486,-0.487 -0.325,-0.487 -0.162,-0.486 v -0.648 l 0.162,-0.649 0.325,-0.486 0.486,-0.324 0.648,-0.163 h 0.487" /><path
           inkscape:connector-curvature="0"
           id="path1961"
           style="fill:#231f20;fill-opacity:1;fill-rule:evenodd;stroke:none"
           d="m 110.479,202.381 0.647,0.324 0.488,0.324 0.324,0.486 0.324,0.487 v 0.648 l -0.324,0.649 -0.324,0.486 -0.488,0.324 -0.647,0.162 h -0.487 l -0.649,-0.162 -0.486,-0.324 -0.325,-0.486 -0.161,-0.649 v -0.648 l 0.161,-0.487 0.325,-0.486 0.486,-0.324 0.649,-0.324 h 0.487" /><path
           inkscape:connector-curvature="0"
           id="path1963"
           style="fill:#231f20;fill-opacity:1;fill-rule:evenodd;stroke:none"
           d="m 139.822,243.397 0.648,0.162 0.488,0.325 0.323,0.485 0.162,0.649 v 0.649 l -0.162,0.486 -0.323,0.487 -0.488,0.486 -0.648,0.162 h -0.649 l -0.485,-0.162 -0.487,-0.486 -0.486,-0.487 -0.163,-0.486 v -0.649 l 0.163,-0.649 0.486,-0.485 0.487,-0.325 0.485,-0.162 h 0.649" /><path
           inkscape:connector-curvature="0"
           id="path1965"
           style="fill:#231f20;fill-opacity:1;fill-rule:evenodd;stroke:none"
           d="m 164.141,257.339 0.648,0.163 0.486,0.324 0.325,0.486 0.324,0.649 v 0.648 l -0.324,0.487 -0.325,0.486 -0.486,0.325 -0.648,0.323 h -0.487 l -0.648,-0.323 -0.486,-0.325 -0.325,-0.486 -0.162,-0.487 v -0.648 l 0.162,-0.649 0.325,-0.486 0.486,-0.324 0.648,-0.163 h 0.487" /><path
           inkscape:connector-curvature="0"
           id="path1967"
           style="fill:#231f20;fill-opacity:1;fill-rule:evenodd;stroke:none"
           d="m 188.622,245.343 0.485,0.162 0.648,0.323 0.326,0.488 0.162,0.648 v 0.648 l -0.162,0.486 -0.326,0.487 -0.648,0.486 -0.485,0.163 h -0.65 l -0.648,-0.163 -0.487,-0.486 -0.324,-0.487 -0.162,-0.486 v -0.648 l 0.162,-0.648 0.324,-0.488 0.487,-0.323 0.648,-0.162 h 0.65" /><path
           inkscape:connector-curvature="0"
           id="path1969"
           style="fill:#231f20;fill-opacity:1;fill-rule:evenodd;stroke:none"
           d="m 120.368,183.899 0.486,0.324 0.486,0.324 0.487,0.486 0.162,0.649 v 0.486 l -0.162,0.649 -0.487,0.486 -0.486,0.324 -0.486,0.324 h -0.649 l -0.648,-0.324 -0.486,-0.324 -0.325,-0.486 -0.162,-0.649 v -0.486 l 0.162,-0.649 0.325,-0.486 0.486,-0.324 0.648,-0.162 h 0.649" /><path
           inkscape:connector-curvature="0"
           id="path1971"
           style="fill:#231f20;fill-opacity:1;fill-rule:evenodd;stroke:none"
           d="m 133.662,213.567 0.648,0.323 0.487,0.326 0.324,0.485 0.324,0.487 v 0.649 l -0.324,0.648 -0.324,0.486 -0.487,0.325 -0.648,0.162 h -0.487 l -0.648,-0.162 -0.486,-0.325 -0.325,-0.486 -0.162,-0.648 v -0.649 l 0.162,-0.487 0.325,-0.485 0.486,-0.326 0.648,-0.323 h 0.487" /><path
           inkscape:connector-curvature="0"
           id="path1973"
           style="fill:#231f20;fill-opacity:1;fill-rule:evenodd;stroke:none"
           d="m 145.983,244.856 0.487,0.162 0.486,0.325 0.486,0.485 0.163,0.649 v 0.487 l -0.163,0.648 -0.486,0.486 -0.486,0.325 -0.487,0.324 h -0.649 l -0.647,-0.324 -0.487,-0.325 -0.324,-0.486 -0.163,-0.648 v -0.487 l 0.163,-0.649 0.324,-0.485 0.487,-0.325 0.647,-0.162 h 0.649" /><path
           inkscape:connector-curvature="0"
           id="path1975"
           style="fill:#231f20;fill-opacity:1;fill-rule:evenodd;stroke:none"
           d="m 327.559,182.763 0.649,0.163 0.486,0.324 0.324,0.649 0.162,0.486 v 0.648 l -0.162,0.649 -0.324,0.486 -0.486,0.324 -0.649,0.163 h -0.486 l -0.649,-0.163 -0.486,-0.324 -0.324,-0.486 -0.324,-0.649 v -0.648 l 0.324,-0.486 0.324,-0.649 0.486,-0.324 0.649,-0.163 h 0.486" /><path
           inkscape:connector-curvature="0"
           id="path1977"
           style="fill:#231f20;fill-opacity:1;fill-rule:evenodd;stroke:none"
           d="m 148.901,242.748 -2.107,3.568 -2.107,-3.568 h 4.214" /><path
           inkscape:connector-curvature="0"
           id="path1979"
           style="fill:#231f20;fill-opacity:1;fill-rule:evenodd;stroke:none"
           d="m 106.263,144.016 -2.108,3.729 -2.107,-3.566 h 4.215" /><path
           inkscape:connector-curvature="0"
           id="path1981"
           style="fill:#231f20;fill-opacity:1;fill-rule:evenodd;stroke:none"
           d="m 114.856,173.685 -2.108,3.728 -2.107,-3.728 h 4.215" /><path
           inkscape:connector-curvature="0"
           id="path1983"
           style="fill:#231f20;fill-opacity:1;fill-rule:evenodd;stroke:none"
           d="m 119.719,165.904 -2.107,3.728 -2.107,-3.728 h 4.214" /><path
           inkscape:connector-curvature="0"
           id="path1985"
           style="fill:#231f20;fill-opacity:1;fill-rule:evenodd;stroke:none"
           d="m 124.584,235.94 -2.109,3.728 -2.107,-3.728 h 4.216" /><path
           inkscape:connector-curvature="0"
           id="path1987"
           style="fill:#231f20;fill-opacity:1;fill-rule:evenodd;stroke:none"
           d="m 129.447,262.203 -2.107,3.567 -2.109,-3.567 h 4.216" /><path
           inkscape:connector-curvature="0"
           id="path1989"
           style="fill:#231f20;fill-opacity:1;fill-rule:evenodd;stroke:none"
           d="m 134.31,242.911 -2.107,3.566 -2.108,-3.566 h 4.215" /><path
           inkscape:connector-curvature="0"
           id="path1991"
           style="fill:#231f20;fill-opacity:1;fill-rule:evenodd;stroke:none"
           d="m 139.173,233.022 -2.107,3.566 -2.107,-3.566 h 4.214" /><path
           inkscape:connector-curvature="0"
           id="path1993"
           style="fill:#231f20;fill-opacity:1;fill-rule:evenodd;stroke:none"
           d="m 144.038,234.967 -2.108,3.728 -2.108,-3.728 h 4.216" /><path
           inkscape:connector-curvature="0"
           id="path1995"
           style="fill:#231f20;fill-opacity:1;fill-rule:evenodd;stroke:none"
           d="m 148.901,245.181 -2.107,3.728 -2.107,-3.728 h 4.214" /><path
           inkscape:connector-curvature="0"
           id="path1997"
           style="fill:#231f20;fill-opacity:1;fill-rule:evenodd;stroke:none"
           d="m 153.765,266.743 -2.108,3.728 -2.107,-3.728 h 4.215" /><path
           inkscape:connector-curvature="0"
           id="path1999"
           style="fill:#231f20;fill-opacity:1;fill-rule:evenodd;stroke:none"
           d="m 158.628,254.908 -2.106,3.566 -2.109,-3.566 h 4.215" /><path
           inkscape:connector-curvature="0"
           id="path2001"
           style="fill:#231f20;fill-opacity:1;fill-rule:evenodd;stroke:none"
           d="m 163.492,251.99 -1.945,3.728 -2.107,-3.728 h 4.052" /><path
           inkscape:connector-curvature="0"
           id="path2003"
           style="fill:#231f20;fill-opacity:1;fill-rule:evenodd;stroke:none"
           d="m 123.286,166.714 -2.108,3.567 -2.107,-3.567 h 4.215" /><path
           inkscape:connector-curvature="0"
           id="path2005"
           style="fill:#231f20;fill-opacity:1;fill-rule:evenodd;stroke:none"
           d="m 135.445,218.755 -1.945,3.566 -2.108,-3.566 h 4.053" /><path
           inkscape:connector-curvature="0"
           id="path2007"
           style="fill:#231f20;fill-opacity:1;fill-rule:evenodd;stroke:none"
           d="m 147.767,258.961 -2.108,3.729 -2.107,-3.729 h 4.215" /><path
           inkscape:connector-curvature="0"
           id="path2009"
           style="fill:#231f20;fill-opacity:1;fill-rule:evenodd;stroke:none"
           d="m 329.343,167.2 -2.108,3.729 -2.107,-3.729 h 4.215" /><g
           transform="translate(329.018,150.502)"
           id="g2011"><path
             inkscape:connector-curvature="0"
             id="path2013"
             style="fill:none;stroke:#231f20;stroke-width:0.5;stroke-linecap:butt;stroke-linejoin:round;stroke-miterlimit:10;stroke-dasharray:none;stroke-opacity:1"
             d="M 0,0 V 3.404 H -3.404 V 0 H 0 m -225.997,-5.513 h 2.756 m 0,0 v 3.404 h -2.756 m 11.349,41.18 v 3.404 h -3.406 v -3.404 h 3.406 m 53.661,101.65 v 3.405 h -3.404 v -3.405 h 3.404 m -19.454,-45.395 v 3.406 h -3.404 v -3.406 h 3.404 M -217.08,3.242 v 3.404 h -3.406 V 3.242 h 3.406 m 53.662,129.211 v 3.567 h -3.405 v -3.567 h 3.405 m 46.367,5.836 v 3.404 h -3.405 v -3.404 h 3.405 m -73.118,-38.585 v 3.405 h -3.404 v -3.405 h 3.404 m -35.828,-73.117 h 2.918 m 0,0 v 3.404 h -2.918 m 135.695,110.405 v 3.406 h -3.404 v -3.406 h 3.404 M 0,-12.97 -3.404,-16.374 m 3.404,0 -3.404,3.404 m -1.459,138.938 -3.405,-3.405 m 3.405,0 -3.405,3.405 m -118.511,-11.997 -3.404,-3.404 m 3.404,0 -3.404,3.404 m -51.555,-4.702 -3.404,-3.404 m 3.404,0 -3.404,3.566 m -8.755,-32.1 -3.405,-3.404 m 3.405,0 -3.405,3.404 m -10.051,-29.181 -3.405,-3.405 m 3.405,0 -3.405,3.405 m 21.239,49.609 v -3.08 m 6.16,1.621 h -6.16 m -12.159,-29.668 v -3.081 m 6.16,1.459 h -6.16 M -216.27,36.963 v -3.08 m 7.296,1.621 h -7.296 m 63.39,62.741 v -3.081 m 12.158,1.621 h -12.158 m -24.481,13.458 v -3.081 m 12.322,1.622 h -12.322 M -201.678,96.3 v -3.08 m 12.159,1.621 h -12.159 m -17.024,-41.017 h -7.295 m 48.636,21.4 v -3.08 m 12.322,1.621 h -12.322 m -24.317,-12.808 v -3.08 m 9.726,1.621 h -9.726 m 162.445,46.367 v -3.08 m 14.591,1.459 H -39.233 M -89.977,117.7 v -3.08 m 12.159,1.621 H -89.977 M -218.702,50.257 h -7.295 m 170.714,57.553 -0.162,-3.08 m 24.48,1.621 h -24.318 m -73.279,42.152 v -3.08 m 36.639,1.459 h -36.639 m -48.799,-19.78 v -3.08 m 24.481,1.459 h -24.481 m 4.865,-33.72 V 88.68 m 12.32,1.621 h -12.32 m -24.319,-14.753 v -3.08 m 9.727,1.621 h -9.727 M -216.27,46.691 V 43.61 m 7.296,1.621 h -7.296 m 252.586,58.688 v -3.08 m 17.508,1.459 H 36.316 M -2.269,99.542 v -3.08 m 16.212,1.459 H -2.269 m -56.094,22.373 v -3.081 m 16.697,1.459 H -58.363 M -177.361,97.759 v -3.08 m -5.998,1.621 h 5.998 m -12.158,-29.668 v -3.081 m -5.999,1.459 h 5.999 m -12.159,-28.047 v -3.08 m -7.296,1.621 h 7.296 m 73.116,62.741 v -3.081 m -12.16,1.621 h 12.16 m -24.318,13.458 v -3.081 m -12.159,1.622 h 12.159 M -177.361,96.3 v -3.08 m -12.158,1.621 h 12.158 m -34.045,-39.396 v -3.08 m -7.296,1.459 h 7.296 m 58.526,21.4 v -3.08 m -12.159,1.621 h 12.159 m -29.344,-12.808 v -3.08 m -9.728,1.621 h 9.728 m 172.172,46.367 v -3.08 m -14.59,1.459 h 14.59 M -65.659,117.7 v -3.08 m -12.159,1.621 h 12.159 M -211.406,51.716 v -3.08 m -7.296,1.621 h 7.296 m 204.76,57.553 v -3.08 m -24.319,1.621 h 24.319 m -48.637,42.152 -0.162,-3.08 m -36.478,1.459 h 36.64 m -73.279,-19.78 v -3.08 m -24.318,1.459 h 24.318 m -19.454,-33.72 V 88.68 m -12.16,1.621 h 12.16 m -29.345,-14.753 v -3.08 m -9.727,1.621 h 9.727 M -201.678,46.691 V 43.61 m -7.296,1.621 h 7.296 m 273.173,58.688 v -3.08 m -17.671,1.459 H 71.495 M 29.992,99.542 v -3.08 m -16.049,1.459 h 16.049 m -55.121,22.373 v -3.081 m -16.537,1.459 h 16.537 m -156.771,-6.16 h -3.08 m 1.621,-16.212 v 16.212 m -10.7,-38.747 h -3.08 m 1.621,-8.755 v 8.755 m -11.996,-30.803 h -3.082 m 1.622,-7.458 v 7.458 m 69.711,70.037 h -3.08 m 1.621,-16.214 v 16.214 m -22.858,11.996 h -3.08 m 1.621,-16.211 v 16.211 m -22.859,-13.942 h -3.081 m 1.46,-16.212 v 16.212 m -27.723,-40.855 h -3.081 m 1.621,-16.374 v 16.374 m 55.122,16.212 h -3.08 m 1.621,-12.645 V 86.41 m -25.454,-15.725 h -2.918 m 1.459,-11.187 v 11.187 m 168.769,44.421 h -2.918 m 1.459,-10.862 v 10.862 m -51.716,6.484 h -2.919 m 1.459,-5.349 v 5.349 M -217.242,55.607 h -3.081 m 1.621,-5.35 v 5.35 m 189.196,77.819 h -3.08 m 1.621,-27.075 v 27.075 m -59.499,35.18 h -3.08 m 1.621,-21.724 v 21.724 m -59.498,-21.4 h -3.08 m 1.621,-21.725 v 21.725 m -5.837,-41.341 -3.08,-0.162 m 1.621,-15.402 v 15.564 m -25.29,-23.021 -3.082,-0.162 m 1.46,-8.593 v 8.755 m -20.426,-29.182 h -3.082 m 1.622,-8.431 v 8.431 m 264.42,69.226 h -3.081 m 1.459,-20.59 v 20.59 m -38.422,-9.727 h -3.081 m 1.622,-15.24 v 15.24 m -54.15,11.997 h -3.08 m 1.621,-6.486 v 6.486 M -181.9,79.926 h -3.08 m 1.621,16.374 V 79.926 m -10.7,-23.508 h -3.08 m 1.621,8.592 v -8.592 m -11.996,-28.533 h -3.082 m 1.622,7.619 v -7.619 m 69.711,52.527 h -3.08 m 1.621,16.373 V 80.412 m -22.858,11.997 h -3.08 m 1.621,16.375 V 92.409 m -22.859,-13.942 h -3.081 m 1.46,16.374 V 78.467 m -27.723,-40.855 h -3.081 m 1.621,16.212 V 37.612 m 55.122,23.507 h -3.08 m 1.621,12.646 V 61.119 M -190.493,48.15 h -2.918 m 1.459,11.348 V 48.15 m 168.769,45.232 h -2.918 m 1.459,10.862 V 93.382 m -51.716,17.346 h -2.919 m 1.459,5.513 v -5.513 M -217.242,44.745 h -3.081 m 1.621,5.512 v -5.512 m 189.196,34.37 h -3.08 m 1.621,27.236 V 79.115 m -59.499,46.043 h -3.08 m 1.621,21.724 v -21.724 m -59.498,-21.401 h -3.08 m 1.621,21.724 v -21.724 m -5.837,-29.02 h -3.08 m 1.621,15.564 V 74.737 m -25.29,-9.402 h -3.082 m 1.46,8.754 v -8.754 m -20.426,-28.534 -3.082,-0.162 m 1.622,8.592 v -8.43 m 264.42,44.908 h -3.081 m 1.459,20.589 V 81.709 m -38.422,1.135 -3.081,-0.162 m 1.622,15.239 V 82.844 m -54.15,29.344 h -3.08 m 1.621,6.484 v -6.484 M -187.088,85.762 v 8.754 m -3.405,-1.296 h -2.918 m 1.459,-9.403 v 9.403 m -3.404,8.268 h -2.918 m 1.459,-7.783 v 7.783 m -3.404,19.454 h -3.082 m 1.623,-8.106 v 8.106 m -3.405,-22.859 h -3.081 m 1.621,-11.349 v 11.349" /></g><g
           transform="translate(119.071,178.062)"
           id="g2015"><path
             inkscape:connector-curvature="0"
             id="path2017"
             style="fill:none;stroke:#231f20;stroke-width:0.5;stroke-linecap:butt;stroke-linejoin:round;stroke-miterlimit:10;stroke-dasharray:none;stroke-opacity:1"
             d="m 0,0 h -3.08 m 1.621,-10.862 V 0 M -4.863,14.591 H -7.945 M -6.323,-3.08 v 17.671 m -7.134,-31.128 h -2.593 m 1.134,-16.212 v 16.212 m 44.26,94.355 h -3.081 m 1.46,-11.996 v 11.996 m -7.295,5.837 v -3.08 m 6.16,1.621 h -6.16 M 8.269,43.449 v -3.081 m 6.16,1.459 H 8.269 M -3.891,-8.592 v -3.081 m 5.998,1.46 h -5.998 m 41.342,86.897 v -3.08 m 5.025,1.621 h -5.025 m -4.865,4.377 v -3.08 m 4.865,1.459 h -4.865 m -4.863,13.456 v -3.08 m 4.863,1.621 H 27.723 M 22.859,69.875 v -3.081 m 4.864,1.621 h -4.864 m -4.864,-8.754 v -3.08 m 4.864,1.621 h -4.864 m -4.863,-0.486 v -3.081 m 4.863,1.622 H 13.132 M 8.269,67.604 v -3.08 m 4.863,1.621 H 8.269 M 3.404,86.898 v -3.08 m 4.865,1.458 H 3.404 M -1.459,60.633 v -3.08 m 4.863,1.621 H -1.459 M -6.323,-9.403 v -3.08 m 4.864,1.621 h -4.864 m -4.864,9.241 -0.161,-3.08 m 5.025,1.621 h -4.864 m -3.729,-29.669 H -16.05 M 3.404,67.443 v -3.081 m 24.319,1.46 H 3.404 m 29.182,17.833 v -3.08 m -5.998,1.621 h 5.998 M 20.428,43.449 v -3.081 m -5.999,1.459 h 5.999 M 8.269,-8.592 v -3.081 m -6.162,1.46 h 6.162 m 39.07,86.897 v -3.08 m -4.863,1.621 h 4.863 m -4.863,4.377 -0.162,-3.08 m -4.863,1.459 h 5.025 m -5.025,13.456 v -3.08 m -4.865,1.621 h 4.865 M 32.586,69.875 v -3.081 m -4.863,1.621 h 4.863 m -4.863,-8.754 v -3.08 m -4.864,1.621 h 4.864 m -4.864,-0.486 v -3.081 m -4.864,1.622 h 4.864 m -4.864,11.347 v -3.08 m -4.863,1.621 h 4.863 m -4.863,20.753 v -3.08 m -4.863,1.458 h 4.863 M 8.269,60.633 v -3.08 M 3.404,59.174 H 8.269 M 3.404,-9.403 v -3.08 m -4.863,1.621 h 4.863 m -4.863,9.241 v -3.08 m -4.864,1.621 h 4.864 m -12.16,-28.21 -0.161,-3.08 m -1.136,1.621 h 1.297 M 52.203,67.443 v -3.081 m -24.48,1.46 h 24.48 M 28.047,40.855 h -3.08 m 1.621,41.341 V 40.855 m -10.7,-15.24 h -3.08 m 1.621,16.212 V 25.615 M 3.728,-18.806 h -3.08 m 1.459,8.593 v -8.593 m 41.828,74.9 h -3.08 m 1.621,19.131 V 56.094 m -3.404,7.133 h -3.08 m 1.459,14.754 V 63.227 m -3.244,17.348 -3.08,-0.163 m 1.459,9.566 V 80.575 M 29.344,60.309 h -3.081 m 1.46,8.106 V 60.309 M 24.481,50.42 h -3.082 m 1.46,7.782 V 50.42 m -3.405,-2.108 h -2.918 m 1.459,7.945 v -7.945 m -3.404,11.025 h -2.918 m 1.459,6.808 V 59.337 M 9.728,77.981 H 6.646 m 1.622,7.295 V 77.981 M 4.864,49.933 H 1.783 m 1.621,9.241 V 49.933 M 0,-21.076 h -3.08 m 1.621,10.214 v -10.214 m -3.404,5.189 h -3.082 m 1.622,12.807 v -12.807 m -7.134,-33.236 h -2.593 m 1.134,16.374 v -16.374 m 44.26,102.948 h -3.081 m 1.46,11.997 V 53.825 m 0.324,50.095 h -3.08 m 1.621,-21.724 v 21.724 m -10.7,-50.095 h -3.08 M 14.429,41.827 V 53.825 M 3.728,-2.594 h -3.08 m 1.459,-7.619 v 7.619 m 41.828,110.405 h -3.08 m 1.621,-32.586 v 32.586 m -3.404,-8.107 -3.08,-0.162 m 1.459,-21.561 v 21.723 m -3.244,1.947 -3.08,-0.163 m 1.459,-11.51 v 11.673 M 29.344,78.144 h -3.081 m 1.46,-9.729 v 9.729 M 24.481,66.956 H 21.399 M -15.078,-31.29 h -0.972 m 4.863,46.043 -0.162,-2.918 m 5.026,1.459 h -4.864 m 29.182,103.11 v -3.08 m 29.344,1.621 H 17.995 m 4.864,-43.936 v -3.08 m 4.864,1.459 H 22.859 M -8.755,-22.697 h -7.295 m 34.045,130.832 v -2.918 m 26.913,1.459 H 17.995 m 70.686,7.296 v -3.081 m 2.432,1.621 H 88.681 M 3.404,75.387 v -3.081 m 14.591,1.622 H 3.404 M -14.916,0.81 h -1.134 m 97.435,115.269 v -3.08 m 36.639,1.459 H 81.385 M -13.942,-29.83 v -3.081 m -1.136,1.621 h 1.136 m 12.483,46.043 v -2.918 m -4.864,1.459 h 4.864 m 77.98,103.11 v -3.08 m -29.182,1.621 H 76.521 M 32.586,71.009 v -3.08 m -4.863,1.459 h 4.863 M -1.459,-21.076 v -3.08 m -7.296,1.459 h 7.296 m 73.117,130.832 v -2.918 m -26.75,1.459 h 26.75 m 21.886,7.296 v -3.081 m -2.431,1.621 h 2.431 M 32.586,75.387 v -3.081 m -14.591,1.622 h 14.591 m -46.205,-71.659 -0.162,-3.08 m -1.135,1.621 h 1.297 m 168.283,115.269 -0.162,-3.08 m -36.478,1.459 h 36.64 M -13.619,-9.565 h -2.431 m 0.972,-21.725 V -9.565 M -4.863,19.78 h -3.082 m 1.622,-6.486 v 6.486 m 55.121,108.135 h -3.08 m 1.621,-12.97 v 12.97 M 29.344,85.114 h -3.081 m 1.46,-15.726 V 85.114 M -7.295,-16.213 h -3.081 m 1.621,-6.484 v 6.484 m 55.122,125.645 h -3.08 m 1.621,-2.756 v 2.756 m 47.826,16.05 h -3.08 m 1.459,-12.97 v 12.97 M 19.454,85.763 H 16.536 M 17.995,73.928 V 85.763 M -13.457,12.807 H -16.05 M -14.916,0.81 v 11.997 m 134.399,118.025 h -3.08 m 1.621,-16.374 v 16.374 M -13.619,-53.014 h -2.431 m 0.972,21.724 V -53.014 M -4.863,6.809 h -3.082 m 1.622,6.485 V 6.809 m 55.121,95.165 h -3.08 m 1.621,12.971 V 101.974 M 29.344,53.662 h -3.081 m 1.46,15.726 V 53.662 M -7.295,-29.181 h -3.081 m 1.621,6.484 v -6.484 M 46.367,103.92 h -3.08 m 1.621,2.756 v -2.756 m 47.826,-4.54 h -3.08 m 1.459,13.132 V 99.38 M 19.454,61.93 h -2.918 m 1.459,11.998 V 61.93 M -13.457,-11.186 H -16.05 M -14.916,0.81 V -11.186 M 119.483,98.245 h -3.08 m 1.621,16.213 V 98.245 m 86.898,-48.312 h -3.081 m 1.46,46.691 V 49.933 m -120.295,9.89 h -3.08 M 81.385,84.79 V 59.823 M 28.047,51.88 h -3.08" /></g><g
           transform="translate(145.659,258.15)"
           id="g2019"><path
             inkscape:connector-curvature="0"
             id="path2021"
             style="fill:none;stroke:#231f20;stroke-width:0.5;stroke-linecap:butt;stroke-linejoin:round;stroke-miterlimit:10;stroke-dasharray:none;stroke-opacity:1"
             d="m 0,0 v -28.208 m -10.7,-30.966 h -3.08 m 1.621,27.075 v -27.075 m -11.996,-31.451 h -3.082 m 1.622,29.343 V -90.625 M 178.334,55.77 175.253,55.608 m 1.46,-39.072 V 55.77 M 56.418,28.534 h -3.08 M 54.797,4.702 V 28.534 M 1.459,28.209 h -3.08 M 0,0 V 28.209 M -10.7,-4.863 h -3.08 m 1.621,-27.236 v 27.236 m -11.996,-27.075 h -3.082 m 1.622,-29.344 v 29.344 m 129.21,50.095 v -3.08 m 73.118,1.459 H 103.595 M 5.998,6.161 V 3.08 M 54.797,4.702 H 5.998 M -6.16,1.459 v -3.08 M 0,0 h -6.16 m -12.16,-30.478 v -3.081 m 6.161,1.46 H -18.32 M -32.911,-59.66 v -3.081 m 7.296,1.459 h -7.296 m 282.902,79.439 v -3.08 m -73.278,1.459 h 73.278 M 103.595,6.161 V 3.08 M 54.797,4.702 h 48.798 M 5.998,1.459 v -3.08 M 0,0 H 5.998 M -6.16,-30.478 v -3.081 m -5.999,1.46 H -6.16 M -18.32,-59.66 v -3.081 m -7.295,1.459 h 7.295 m 216.919,-9.403 h 1.621 m -4.702,0 h 1.621 m 2.594,0 -1.783,-5.513 m -1.621,5.513 1.621,-4.702 m -1.945,4.702 1.945,-5.513 m -4.863,5.513 h 1.621 m -5.189,0 h 1.784 m -0.811,0 v -3.89 l 0.324,-0.812 0.487,-0.485 0.487,-0.326 m -1.459,5.513 v -3.89 l 0.161,-0.812 0.486,-0.485 0.812,-0.326 h 0.647 l 0.65,0.326 0.647,0.485 0.162,0.812 v 3.89 m 11.026,-23.183 h 1.945 m -1.945,8.43 h 1.945 m 0,0 v -8.43 m -0.324,8.43 v -8.43 m -4.701,1.784 h 1.782 m -1.782,5.511 h 1.782 m -0.811,0 v -5.511 m -0.162,5.511 v -5.511 m -3.728,0 h 1.783 m -1.783,5.511 h 1.783 m -0.648,0 v -5.511 m -0.325,5.511 v -5.511 m -3.89,0 0.486,0.323 0.486,0.487 0.324,0.487 0.163,1.134 v 0.649 l -0.163,1.135 -0.324,0.486 -0.486,0.486 -0.486,0.324 m -0.649,0 -0.648,-0.324 -0.65,-0.486 -0.162,-0.486 -0.323,-1.135 v -0.649 l 0.323,-1.134 0.162,-0.487 0.65,-0.487 0.648,-0.323 h 0.649 l 0.81,0.323 0.486,0.487 0.163,0.487 0.324,1.134 v 0.649 l -0.324,1.135 -0.163,0.486 -0.486,0.486 -0.81,0.324 h -0.649 l -0.486,-0.324 -0.487,-0.486 -0.325,-0.486 -0.162,-1.135 v -0.649 l 0.162,-1.134 0.325,-0.487 0.487,-0.487 0.486,-0.323 m -5.187,-1.784 h 1.783 m -1.783,8.43 h 1.783 m -1.459,0 v -8.43 m -0.324,8.43 v -8.43 m 34.855,-10.862 0.811,-0.162 0.649,-0.649 0.161,-0.486 v -0.811 l -0.161,-0.486 -0.325,-0.324 -0.486,-0.162 m -0.649,3.08 1.135,-0.162 0.486,-0.649 0.324,-0.486 v -0.811 l -0.324,-0.486 -0.161,-0.324 -0.811,-0.162 h -0.649 l -0.486,0.162 -0.162,0.324 -0.325,0.811 m 2.594,4.214 0.486,-0.486 v -0.81 l -0.162,-0.649 -0.324,-0.162 -0.486,-0.324 m 0,2.431 h 0.486 l 0.486,-0.324 0.325,-0.162 v -0.81 l -0.325,-0.649 -0.162,-0.162 -0.81,-0.324 h -1.135 m 1.135,2.431 -0.486,-0.324 -0.649,-0.486 -0.486,-1.135 -0.162,-0.648 -0.325,-1.135 -0.324,-1.621 -0.162,-2.109 m 2.594,7.458 -0.811,-0.324 -0.485,-0.486 -0.487,-1.135 -0.325,-0.648 -0.324,-1.135 -0.162,-1.621 -0.324,-2.109 m -2.918,1.947 h 1.945 m -5.35,0 h 1.783 m -0.648,2.918 h 3.08 m -0.81,2.593 h 1.945 m -5.35,0 h 1.783 m 2.757,0 v -5.511 m -0.325,5.511 v -5.511 m -3.08,5.511 v -5.511 m -0.324,5.511 v -5.511 m -10.214,4.215 0.325,-0.649 1.945,-2.756 0.648,-0.648 0.487,-0.162 m -3.405,0 -0.486,0.162 -0.324,0.648 v 0.649 l 0.324,0.648 0.486,0.486 m 3.729,0.811 -0.324,-0.324 0.324,-0.162 0.163,0.162 v 0.324 l -0.163,0.162 h -0.324 l -0.325,-0.162 -0.162,-0.486 -0.648,-1.459 -0.487,-0.649 -0.486,-0.648 -0.486,-0.162 h -0.811 l -0.81,0.162 -0.324,0.648 v 0.649 l 0.324,0.648 1.621,0.973 0.486,0.486 0.324,0.649 v 0.486 l -0.324,0.486 -0.486,0.324 -0.486,-0.324 -0.325,-0.486 v -0.486 l 0.325,-0.811 0.486,-0.811 1.297,-1.783 0.487,-0.648 0.81,-0.162 h 0.324 l 0.163,0.162 v 0.324 m -12.809,3.08 0.163,-0.162 0.324,-0.486 0.486,-2.108 0.324,-0.648 0.487,-0.162 h 0.324 m -2.594,3.566 h 0.486 l 0.487,-0.162 0.324,-0.486 0.486,-2.108 0.325,-0.648 0.162,-0.162 m -2.27,3.566 -0.648,-0.162 -0.487,-0.486 -0.162,-0.649 -0.324,-0.81 V -107 l 0.324,-0.648 0.486,-0.162 m 0.811,3.566 -0.811,-0.162 -0.486,-0.486 -0.324,-0.649 -0.324,-0.81 V -107 l 0.324,-0.648 0.81,-0.162 h 0.487 l 0.486,0.162 0.811,0.81 0.486,0.811 0.649,1.135 0.162,0.648 m -7.295,-3.566 h 1.783 m -5.189,0 h 1.784 m -0.811,2.918 h 3.242 m -0.809,2.593 h 1.783 m -5.189,0 h 1.784 m 2.593,0 v -5.511 m -0.162,5.511 v -5.511 m -3.242,5.511 v -5.511 m -0.161,5.511 v -5.511 m 65.011,-17.185 h 1.783 m -4.701,0 h 1.944 m -4.863,0 h 1.945 m -1.945,3.567 h 1.134 m 4.703,0 0.486,-0.163 0.323,-0.486 v -2.918 m -2.594,2.918 0.488,0.486 0.809,0.163 h 0.488 l 0.809,-0.163 0.324,-0.486 v -2.918 m -4.051,3.567 0.647,-0.163 0.162,-0.486 v -2.918 m -2.594,2.918 0.487,0.486 0.81,0.163 h 0.488 l 0.809,-0.163 0.324,-0.486 v -2.918 m -2.918,3.567 v -3.567 m -0.324,3.567 v -3.567 m -3.566,0 h 1.783 m -4.701,0 h 1.783 m -4.701,0 h 1.783 m -1.783,3.567 h 0.973 m 4.863,0 0.486,-0.163 0.162,-0.486 v -2.918 m -2.594,2.918 0.649,0.486 0.647,0.163 h 0.65 l 0.648,-0.163 0.325,-0.486 v -2.918 m -3.891,3.567 0.486,-0.163 0.323,-0.486 v -2.918 m -2.754,2.918 0.648,0.486 0.81,0.163 h 0.487 l 0.809,-0.163 0.163,-0.486 v -2.918 m -2.917,3.567 v -3.567 m -0.164,3.567 v -3.567 m -7.132,2.27 h 4.702 m -10.701,3.242 h 0.973 m 1.621,-1.945 0.486,-0.163 0.649,-0.486 0.162,-0.81 v -0.649 l -0.162,-0.648 -0.649,-0.649 -0.486,-0.162 m -1.621,2.918 0.648,0.486 0.487,0.163 h 0.486 l 0.811,-0.163 0.486,-0.486 0.324,-0.81 v -0.649 l -0.324,-0.648 -0.486,-0.649 -0.811,-0.162 h -0.486 l -0.487,0.162 -0.648,0.649 m 0,4.701 v -5.512 m -0.162,5.512 v -5.512 m -2.919,0 h 0.973 m -1.783,3.567 h 1.134 m -4.052,0 h 1.134 m 2.918,0 v -3.567 m -0.324,3.567 v -3.567 m -2.594,3.567 v -2.756 l 0.163,-0.649 0.649,-0.162 m -1.136,3.567 v -2.756 l 0.324,-0.649 0.812,-0.162 h 0.485 l 0.811,0.162 0.486,0.649 m -7.944,2.107 0.325,-0.324 0.486,-0.324 1.297,-0.487 0.649,-0.324 0.162,-0.162 v -0.812 l -0.162,-0.323 -0.649,-0.162 h -0.972 l -0.487,0.162 -0.324,0.323 -0.325,0.488 v -0.973 l 0.325,0.485 m 2.432,2.595 0.162,0.487 v -0.973 l -0.162,0.486 -0.325,0.324 -0.486,0.163 h -1.135 l -0.486,-0.163 -0.325,-0.324 v -0.486 l 0.325,-0.324 0.486,-0.162 1.297,-0.649 0.649,-0.162 0.162,-0.324 m -12.484,3.242 0.162,-0.648 2.109,-2.756 0.485,-0.649 0.649,-0.162 m -3.405,0 -0.647,0.162 -0.163,0.649 v 0.648 l 0.163,0.649 0.647,0.486 m 3.567,0.81 -0.162,-0.324 0.162,-0.162 0.325,0.162 v 0.324 l -0.325,0.163 h -0.162 l -0.325,-0.163 -0.324,-0.486 -0.485,-1.459 -0.487,-0.648 -0.487,-0.649 -0.648,-0.162 h -0.649 l -0.81,0.162 -0.324,0.649 v 0.648 l 0.324,0.649 1.459,0.972 0.648,0.487 0.162,0.648 v 0.486 l -0.162,0.487 -0.648,0.324 -0.487,-0.324 -0.162,-0.487 v -0.486 l 0.162,-0.811 0.487,-0.81 1.459,-1.783 0.487,-0.649 0.81,-0.162 h 0.162 l 0.325,0.162 v 0.323 m -12.322,2.109 0.162,-0.486 0.648,-1.946 0.163,-0.162 h 0.648 l 0.162,0.485 v 0.326 m -2.269,2.107 0.486,-0.324 0.162,-0.324 0.811,-1.785 0.325,-0.323 h 0.323 l 0.162,0.323 m -4.701,-0.485 h 1.783 m 1.297,5.512 0.648,-0.324 0.163,-0.325 0.325,-0.486 v -0.486 l -0.325,-0.487 -0.163,-0.324 -0.648,-0.162 m -3.08,2.594 h 3.08 l 0.811,-0.324 0.325,-0.325 0.323,-0.486 v -0.486 l -0.323,-0.487 -0.325,-0.324 -0.811,-0.162 h -2.107 m 0,2.594 v -5.512 m -0.163,5.512 v -5.512 m -3.728,0 h 1.783 m -1.783,5.512 h 1.783 m -0.648,0 v -5.512 m -0.325,5.512 v -5.512 m -5.999,0 h 1.784 m -0.811,2.918 h 1.621 m -2.594,2.594 h 4.215 v -1.621 l -0.323,1.621 m -1.298,-1.621 v -2.108 m -1.621,3.729 v -5.512 m -0.161,5.512 v -5.512" /></g></g></g></g></svg>
