<?xml version="1.0" encoding="UTF-8" standalone="no"?>
<svg
   xmlns:dc="http://purl.org/dc/elements/1.1/"
   xmlns:cc="http://creativecommons.org/ns#"
   xmlns:rdf="http://www.w3.org/1999/02/22-rdf-syntax-ns#"
   xmlns:svg="http://www.w3.org/2000/svg"
   xmlns="http://www.w3.org/2000/svg"
   viewBox="0 0 327.47632 331.27377"
   height="331.27377"
   width="327.47632"
   xml:space="preserve"
   id="svg833"
   version="1.1"><metadata
     id="metadata839"><rdf:RDF><cc:Work
         rdf:about=""><dc:format>image/svg+xml</dc:format><dc:type
           rdf:resource="http://purl.org/dc/dcmitype/StillImage" /><dc:title></dc:title></cc:Work></rdf:RDF></metadata><defs
     id="defs837"><clipPath
       id="clipPath851"
       clipPathUnits="userSpaceOnUse"><path
         id="path849"
         d="M 0,0 H 612 V 792 H 0 Z" /></clipPath><clipPath
       id="clipPath863"
       clipPathUnits="userSpaceOnUse"><path
         id="path861"
         d="M 47.6,473.2 H 299.7 V 730 H 47.6 Z" /></clipPath><clipPath
       id="clipPath1049"
       clipPathUnits="userSpaceOnUse"><path
         id="path1047"
         d="M 0,0 H 612 V 792 H 0 Z" /></clipPath></defs><g
     transform="matrix(1.3333333,0,0,-1.3333333,-72.084292,969.58932)"
     id="g841"><g
       id="g843" /><g
       id="g857"><g
         clip-path="url(#clipPath863)"
         id="g859"><g
           transform="scale(0.1)"
           id="g865"><path
             id="path867"
             style="fill:none;stroke:#231f20;stroke-width:3.10938;stroke-linecap:butt;stroke-linejoin:round;stroke-miterlimit:10;stroke-dasharray:none;stroke-opacity:1"
             d="M 760.84,5016.42 H 2995.15 V 7250.73 H 760.84 V 5016.42 h 2234.31 m -2234.31,0 h 2234.31 m -2119.587,0 v 25.62 m 108.039,-25.62 v 25.62 m 87.988,-25.62 v 25.62 m 74.63,-25.62 v 25.62 m 65.71,-25.62 v 25.62 m 56.81,-25.62 v 25.62 m 51.23,-25.62 v 50.12 m 336.37,-50.12 v 25.62 m 196.04,-25.62 v 25.62 m 139.22,-25.62 v 25.62 m 109.16,-25.62 v 25.62 m 87.99,-25.62 v 25.62 m 74.63,-25.62 v 25.62 m 64.6,-25.62 v 25.62 m 57.91,-25.62 v 25.62 m 51.24,-25.62 v 50.12 m 335.25,-50.12 v 25.62 m 197.16,-25.62 v 25.62 M 760.84,7250.73 h 2234.31 m -2119.587,0 v -24.51 m 108.039,24.51 v -24.51 m 87.988,24.51 v -24.51 m 74.63,24.51 v -24.51 m 65.71,24.51 v -24.51 m 56.81,24.51 v -24.51 m 51.23,24.51 v -49.01 m 336.37,49.01 v -24.51 m 196.04,24.51 v -24.51 m 139.22,24.51 v -24.51 m 109.16,24.51 v -24.51 m 87.99,24.51 v -24.51 m 74.63,24.51 v -24.51 m 64.6,24.51 v -24.51 m 57.91,24.51 v -24.51 m 51.24,24.51 v -49.01 m 335.25,49.01 v -24.51 m 197.16,24.51 v -24.51 M 760.84,5016.42 v 2234.31 m 0,-2234.31 h 25.617 m -25.617,160.39 h 25.617 m -25.617,159.28 h 50.121 m -50.121,159.27 h 25.617 m -25.617,159.27 h 25.617 m -25.617,160.39 h 25.617 M 760.84,5974.3 h 50.121 m -50.121,159.27 h 25.617 m -25.617,159.28 h 25.617 m -25.617,160.38 h 25.617 m -25.617,159.29 h 50.121 m -50.121,159.27 h 25.617 m -25.617,159.27 h 25.617 m -25.617,160.39 h 25.617 m -25.617,159.28 h 50.121 M 2995.15,5016.42 v 2234.31 m 0,-2234.31 h -24.51 m 24.51,160.39 h -24.51 m 24.51,159.28 h -49.01 m 49.01,159.27 h -24.51 m 24.51,159.27 h -24.51 m 24.51,160.39 h -24.51 m 24.51,159.28 h -49.01 m 49.01,159.27 h -24.51 m 24.51,159.28 h -24.51 m 24.51,160.38 h -24.51 m 24.51,159.29 h -49.01 m 49.01,159.27 h -24.51 m 24.51,159.27 h -24.51 m 24.51,160.39 h -24.51 m 24.51,159.28 h -49.01" /></g><path
           id="path869"
           style="fill:#231f20;fill-opacity:1;fill-rule:evenodd;stroke:none"
           d="m 87.4449,523.139 0.4453,0.111 0.3344,0.223 0.2227,0.334 0.1113,0.446 v 0.445 l -0.1113,0.334 -0.2227,0.334 -0.3344,0.334 -0.4453,0.112 h -0.3344 l -0.4453,-0.112 -0.3343,-0.334 -0.2227,-0.334 -0.1113,-0.334 v -0.445 l 0.1113,-0.446 0.2227,-0.334 0.3343,-0.223 0.4453,-0.111 h 0.3344" /><path
           id="path871"
           style="fill:#231f20;fill-opacity:1;fill-rule:evenodd;stroke:none"
           d="m 98.6945,525.477 0.334,0.112 0.334,0.223 0.3344,0.334 0.1113,0.445 v 0.446 l -0.1113,0.334 -0.3344,0.334 -0.334,0.334 -0.334,0.112 h -0.4457 l -0.4457,-0.112 -0.334,-0.334 -0.2226,-0.334 -0.1113,-0.334 v -0.446 l 0.1113,-0.445 0.2226,-0.334 0.334,-0.223 0.4457,-0.112 h 0.4457" /><path
           id="path873"
           style="fill:#231f20;fill-opacity:1;fill-rule:evenodd;stroke:none"
           d="m 109.832,529.264 0.446,0.223 0.334,0.224 0.223,0.334 0.111,0.444 v 0.335 l -0.111,0.445 -0.223,0.335 -0.334,0.223 -0.446,0.222 h -0.445 l -0.334,-0.222 -0.446,-0.223 -0.223,-0.335 -0.111,-0.445 v -0.335 l 0.111,-0.444 0.223,-0.334 0.446,-0.224 0.334,-0.111 h 0.445" /><path
           id="path875"
           style="fill:#231f20;fill-opacity:1;fill-rule:evenodd;stroke:none"
           d="m 120.971,534.054 0.445,0.111 0.334,0.223 0.223,0.335 0.111,0.445 v 0.446 l -0.111,0.333 -0.223,0.335 -0.334,0.334 -0.445,0.111 h -0.446 l -0.334,-0.111 -0.334,-0.334 -0.223,-0.335 -0.223,-0.333 v -0.446 l 0.223,-0.445 0.223,-0.335 0.334,-0.223 0.334,-0.111 h 0.446" /><path
           id="path877"
           style="fill:#231f20;fill-opacity:1;fill-rule:evenodd;stroke:none"
           d="m 132.22,537.396 0.334,0.222 0.334,0.223 0.335,0.334 0.111,0.445 v 0.335 l -0.111,0.445 -0.335,0.334 -0.334,0.223 -0.334,0.112 h -0.445 l -0.446,-0.112 -0.334,-0.223 -0.223,-0.334 -0.111,-0.445 v -0.335 l 0.111,-0.445 0.223,-0.334 0.334,-0.223 0.446,-0.222 h 0.445" /><path
           id="path879"
           style="fill:#231f20;fill-opacity:1;fill-rule:evenodd;stroke:none"
           d="m 143.358,543.187 0.446,0.111 0.334,0.335 0.223,0.334 0.111,0.334 v 0.446 l -0.111,0.445 -0.223,0.335 -0.334,0.222 -0.446,0.112 h -0.445 l -0.446,-0.112 -0.334,-0.222 -0.223,-0.335 -0.111,-0.445 v -0.446 l 0.111,-0.334 0.223,-0.334 0.334,-0.335 0.446,-0.111 h 0.445" /><path
           id="path881"
           style="fill:#231f20;fill-opacity:1;fill-rule:evenodd;stroke:none"
           d="m 154.496,547.531 0.446,0.112 0.334,0.222 0.223,0.335 0.111,0.446 v 0.445 l -0.111,0.334 -0.223,0.334 -0.334,0.334 -0.446,0.112 h -0.445 l -0.334,-0.112 -0.335,-0.334 -0.334,-0.334 -0.111,-0.334 v -0.445 l 0.111,-0.446 0.334,-0.335 0.335,-0.222 0.334,-0.112 h 0.445" /><path
           id="path883"
           style="fill:#231f20;fill-opacity:1;fill-rule:evenodd;stroke:none"
           d="m 165.634,556.107 0.446,0.112 0.334,0.222 0.223,0.447 0.223,0.333 v 0.446 l -0.223,0.445 -0.223,0.335 -0.334,0.223 -0.446,0.111 H 165.3 l -0.445,-0.111 -0.334,-0.223 -0.223,-0.335 -0.112,-0.445 v -0.446 l 0.112,-0.333 0.223,-0.447 0.334,-0.222 0.445,-0.112 h 0.334" /><path
           id="path885"
           style="fill:#231f20;fill-opacity:1;fill-rule:evenodd;stroke:none"
           d="m 176.884,563.348 0.334,0.111 0.334,0.222 0.334,0.335 0.112,0.445 v 0.334 l -0.112,0.446 -0.334,0.334 -0.334,0.223 -0.334,0.223 h -0.446 l -0.445,-0.223 -0.334,-0.223 -0.223,-0.334 -0.111,-0.446 v -0.334 l 0.111,-0.445 0.223,-0.335 0.334,-0.222 0.445,-0.111 h 0.446" /><path
           id="path887"
           style="fill:#231f20;fill-opacity:1;fill-rule:evenodd;stroke:none"
           d="m 188.022,568.248 0.445,0.111 0.335,0.223 0.223,0.334 0.111,0.446 v 0.445 l -0.111,0.334 -0.223,0.335 -0.335,0.223 -0.445,0.223 h -0.446 l -0.333,-0.223 -0.335,-0.223 -0.333,-0.335 -0.112,-0.334 v -0.445 l 0.112,-0.446 0.333,-0.334 0.335,-0.223 0.333,-0.111 h 0.446" /><path
           id="path889"
           style="fill:#231f20;fill-opacity:1;fill-rule:evenodd;stroke:none"
           d="m 199.16,582.839 0.445,0.111 0.335,0.334 0.223,0.335 0.112,0.334 v 0.445 l -0.112,0.447 -0.223,0.333 -0.335,0.223 -0.445,0.112 h -0.446 l -0.333,-0.112 -0.335,-0.223 -0.223,-0.333 -0.222,-0.447 v -0.445 l 0.222,-0.334 0.223,-0.335 0.335,-0.334 0.333,-0.111 h 0.446" /><path
           id="path891"
           style="fill:#231f20;fill-opacity:1;fill-rule:evenodd;stroke:none"
           d="m 210.41,589.745 0.333,0.111 0.335,0.223 0.223,0.335 0.223,0.445 v 0.445 l -0.223,0.334 -0.223,0.334 -0.335,0.334 -0.333,0.112 h -0.446 l -0.445,-0.112 -0.335,-0.334 -0.223,-0.334 -0.11,-0.334 v -0.445 l 0.11,-0.445 0.223,-0.335 0.335,-0.223 0.445,-0.111 h 0.446" /><path
           id="path893"
           style="fill:#231f20;fill-opacity:1;fill-rule:evenodd;stroke:none"
           d="m 221.548,598.655 0.334,0.112 0.445,0.333 0.224,0.335 0.111,0.334 v 0.446 l -0.111,0.445 -0.224,0.334 -0.445,0.223 -0.334,0.112 h -0.446 l -0.445,-0.112 -0.334,-0.223 -0.223,-0.334 -0.111,-0.445 v -0.446 l 0.111,-0.334 0.223,-0.335 0.334,-0.333 0.445,-0.112 h 0.446" /><path
           id="path895"
           style="fill:#231f20;fill-opacity:1;fill-rule:evenodd;stroke:none"
           d="m 232.686,608.456 0.445,0.112 0.335,0.223 0.223,0.334 0.111,0.445 v 0.446 l -0.111,0.334 -0.223,0.334 -0.335,0.334 -0.445,0.112 h -0.445 l -0.334,-0.112 -0.335,-0.334 -0.334,-0.334 -0.111,-0.334 v -0.446 l 0.111,-0.445 0.334,-0.334 0.335,-0.223 0.334,-0.112 h 0.445" /><path
           id="path897"
           style="fill:#231f20;fill-opacity:1;fill-rule:evenodd;stroke:none"
           d="m 243.936,618.704 0.333,0.111 0.335,0.334 0.223,0.335 0.223,0.333 v 0.446 l -0.223,0.445 -0.223,0.335 -0.335,0.223 -0.333,0.111 h -0.446 l -0.445,-0.111 -0.335,-0.223 -0.222,-0.335 -0.112,-0.445 v -0.446 l 0.112,-0.333 0.222,-0.335 0.335,-0.334 0.445,-0.111 h 0.446" /><path
           id="path899"
           style="fill:#231f20;fill-opacity:1;fill-rule:evenodd;stroke:none"
           d="m 255.074,618.036 0.333,0.111 0.335,0.223 0.335,0.334 0.111,0.445 v 0.335 l -0.111,0.445 -0.335,0.334 -0.335,0.223 -0.333,0.222 h -0.446 l -0.445,-0.222 -0.335,-0.223 -0.222,-0.334 -0.112,-0.445 v -0.335 l 0.112,-0.445 0.222,-0.334 0.335,-0.223 0.445,-0.111 h 0.446" /><path
           id="path901"
           style="fill:#231f20;fill-opacity:1;fill-rule:evenodd;stroke:none"
           d="m 266.212,636.859 0.445,0.111 0.334,0.335 0.223,0.334 0.112,0.334 v 0.445 l -0.112,0.446 -0.223,0.334 -0.334,0.223 -0.445,0.111 h -0.446 l -0.334,-0.111 -0.334,-0.223 -0.334,-0.334 -0.112,-0.446 v -0.445 l 0.112,-0.334 0.334,-0.334 0.334,-0.335 0.334,-0.111 h 0.446" /><path
           id="path903"
           style="fill:#231f20;fill-opacity:1;fill-rule:evenodd;stroke:none"
           d="m 277.35,597.43 0.445,0.223 0.335,0.222 0.223,0.334 0.111,0.446 v 0.334 l -0.111,0.446 -0.223,0.334 -0.335,0.222 -0.445,0.224 h -0.446 l -0.333,-0.224 -0.335,-0.222 -0.223,-0.334 -0.223,-0.446 v -0.334 l 0.223,-0.446 0.223,-0.334 0.335,-0.222 0.333,-0.112 h 0.446" /><g
           transform="scale(0.1)"
           id="g905"><path
             id="path907"
             style="fill:none;stroke:#231f20;stroke-width:3.10938;stroke-linecap:butt;stroke-linejoin:round;stroke-miterlimit:10;stroke-dasharray:none;stroke-opacity:1"
             d="m 872.223,5244.75 v 20.05 m 14.476,0 h -27.844 m 125.86,3.34 v 16.71 m 13.367,0 h -26.73 m 124.748,22.28 v 15.58 m 13.36,0 h -26.73 m 124.75,31.2 v 16.71 m 13.36,0 h -26.73 m 125.86,16.7 v 11.14 m 13.37,0 h -26.73 m 124.75,46.78 v 15.59 m 13.36,0 h -26.73 m 124.74,27.85 v 18.93 m 13.37,0 h -26.73 m 125.86,66.83 v 27.85 m 13.37,0 h -27.85 m 125.86,44.55 v 40.1 m 13.37,0 h -26.73 m 124.74,8.91 v 49.01 m 13.37,0 h -26.73 m 124.75,96.89 v 26.73 m 13.37,0 h -26.74 m 125.86,42.33 v 50.12 m 13.37,0 h -27.85 m 125.86,38.98 v 123.64 m 13.37,0 h -26.73 m 124.74,-25.62 v 161.51 m 13.37,0 h -26.73 m 125.86,-59.04 v 187.13 m 13.37,0 h -27.85 m 125.86,-193.81 v 228.33 m 13.37,0 h -26.74 m 124.75,-40.09 v 299.61 m 13.37,0 h -26.74 m 124.75,-692.79 v 513.46 m 14.48,0 H 2757.9 M 872.223,5244.75 v -20.04 m 14.476,0 h -27.844 m 125.86,43.43 v -16.7 m 13.367,0 h -26.73 m 124.748,55.69 v -16.71 m 13.36,0 h -26.73 m 124.75,63.49 v -17.82 m 13.36,0 h -26.73 m 125.86,51.23 v -10.03 m 13.37,0 h -26.73 m 124.75,67.95 v -15.59 m 13.36,0 h -26.73 m 124.74,59.03 v -18.94 m 13.37,0 h -26.73 m 125.86,104.7 v -27.84 m 13.37,0 h -27.85 m 125.86,100.24 v -41.21 m 13.37,0 h -26.73 m 124.74,90.22 v -50.13 m 13.37,0 h -26.73 m 124.75,196.03 v -26.73 m 13.37,0 h -26.74 m 125.86,95.79 v -50.12 m 13.37,0 h -27.85 m 125.86,139.22 v -123.62 m 13.37,0 h -26.73 m 124.74,221.64 v -162.62 m 13.37,0 h -26.73 m 125.86,265.09 v -187.11 m 13.37,0 h -27.85 m 125.86,180.43 v -229.44 m 13.37,0 h -26.74 m 124.75,417.68 v -298.51 m 13.37,0 h -26.74 m 124.75,-94.67 V 5474.2 m 14.48,0 h -27.85 m -1997.06,-261.75 44.555,11.14 44.55,11.14 45.664,12.25 44.555,12.25 44.551,12.25 44.555,13.37 44.55,14.48 44.56,14.47 44.55,15.6 44.55,15.6 45.66,15.59 44.56,17.82 44.55,17.82 44.55,18.93 44.56,20.05 44.55,20.06 44.55,21.16 44.55,23.38 44.56,23.4 45.66,24.5 44.56,26.73 44.55,26.73 44.55,28.96 44.55,30.08 44.55,32.29 44.55,33.42 44.56,35.64 44.56,36.76 45.66,40.1 44.55,41.2 44.55,43.44 44.55,46.78 44.56,49.01 44.55,52.35 44.55,54.58 44.55,59.03 45.67,62.37 44.56,65.72 44.55,70.17 44.55,74.62 44.55,80.2 44.55,83.54 44.56,90.21 44.55,95.79 44.55,101.36 45.67,108.04 44.55,114.72 43.44,119.18" /></g><g
           transform="scale(0.1)"
           id="g909"><path
             id="path911"
             style="fill:none;stroke:#4f4c4c;stroke-width:6.0331;stroke-linecap:butt;stroke-linejoin:round;stroke-miterlimit:10;stroke-dasharray:35.6419, 26.7314;stroke-dashoffset:0;stroke-opacity:1"
             d="m 760.84,5277.05 44.555,14.49 44.55,15.59 45.664,15.58 44.555,16.72 44.551,17.82 44.555,17.82 44.55,18.93 44.56,20.05 44.55,20.05 44.55,21.17 45.66,22.27 44.56,22.27 44.55,24.51 44.55,25.62 44.56,26.73 44.55,27.85 44.55,28.96 44.55,30.06 44.56,32.31 45.66,33.41 44.56,34.53 44.55,36.76 44.55,38.98 44.55,41.21 44.55,42.32 44.55,45.67 44.56,46.79 44.56,50.11 45.66,53.46 44.55,55.69 44.55,59.04 44.55,62.37 44.56,65.72 44.55,69.05 44.55,74.63 44.55,77.96 45.67,83.54 44.56,89.11 44.55,93.56 44.55,100.24 44.55,106.92 44.55,112.5 30.08,81.31" /></g><g
           transform="scale(0.1)"
           id="g913"><path
             id="path915"
             style="fill:none;stroke:#4f4c4c;stroke-width:6.0331;stroke-linecap:butt;stroke-linejoin:round;stroke-miterlimit:10;stroke-dasharray:35.6419, 26.7314;stroke-dashoffset:0;stroke-opacity:1"
             d="M 910.461,7068.62 H 1133.22" /></g><g
           transform="scale(0.1)"
           id="g917"><path
             id="path919"
             style="fill:none;stroke:#231f20;stroke-width:3.10938;stroke-linecap:butt;stroke-linejoin:round;stroke-miterlimit:10;stroke-dasharray:none;stroke-opacity:1"
             d="M 910.461,6950.05 H 1133.22" /></g><text
           id="text923"
           style="font-variant:normal;font-weight:normal;font-size:8.35359px;font-family:Times;-inkscape-font-specification:Times-Roman;writing-mode:lr-tb;fill:#231f20;fill-opacity:1;fill-rule:nonzero;stroke:none"
           transform="matrix(1,0,0,-1,123.286,492.54)"><tspan
             id="tspan921"
             y="0"
             x="0 4.176795">10</tspan></text><text
           id="text927"
           style="font-variant:normal;font-weight:normal;font-size:7.42541px;font-family:Times;-inkscape-font-specification:Times-Roman;writing-mode:lr-tb;fill:#231f20;fill-opacity:1;fill-rule:nonzero;stroke:none"
           transform="matrix(1,0,0,-1,131.6395,493.9322)"><tspan
             id="tspan925"
             y="0"
             x="0 3.7127049">14</tspan></text><text
           id="text931"
           style="font-variant:normal;font-weight:normal;font-size:8.35359px;font-family:Times;-inkscape-font-specification:Times-Roman;writing-mode:lr-tb;fill:#231f20;fill-opacity:1;fill-rule:nonzero;stroke:none"
           transform="matrix(1,0,0,-1,235.1315,492.54)"><tspan
             id="tspan929"
             y="0"
             x="0 4.176795">10</tspan></text><text
           id="text935"
           style="font-variant:normal;font-weight:normal;font-size:7.42541px;font-family:Times;-inkscape-font-specification:Times-Roman;writing-mode:lr-tb;fill:#231f20;fill-opacity:1;fill-rule:nonzero;stroke:none"
           transform="matrix(1,0,0,-1,243.485,493.9322)"><tspan
             id="tspan933"
             y="0"
             x="0 3.7127049">15</tspan></text><text
           id="text939"
           style="font-style:italic;font-variant:normal;font-size:9.74586px;font-family:Times;-inkscape-font-specification:Times-Italic;writing-mode:lr-tb;fill:#231f20;fill-opacity:1;fill-rule:nonzero;stroke:none"
           transform="matrix(1,0,0,-1,157.8608,480.4736)"><tspan
             id="tspan937"
             y="0"
             x="0">M</tspan></text><text
           id="text943"
           style="font-variant:normal;font-weight:normal;font-size:7.8895px;font-family:Times;-inkscape-font-specification:Times-Roman;writing-mode:lr-tb;fill:#231f20;fill-opacity:1;fill-rule:nonzero;stroke:none"
           transform="matrix(1,0,0,-1,165.9792,479.0814)"><tspan
             id="tspan941"
             y="0"
             x="0 3.9447501 7.8895001">180</tspan></text><text
           id="text947"
           style="font-variant:normal;font-weight:normal;font-size:9.74586px;font-family:Times;-inkscape-font-specification:Times-Roman;writing-mode:lr-tb;fill:#231f20;fill-opacity:1;fill-rule:nonzero;stroke:none"
           transform="matrix(1,0,0,-1,180.2499,480.4736)"><tspan
             id="tspan945"
             y="0"
             x="0">(</tspan></text><text
           id="text951"
           style="font-style:italic;font-variant:normal;font-size:9.74586px;font-family:Times;-inkscape-font-specification:Times-Italic;writing-mode:lr-tb;fill:#231f20;fill-opacity:1;fill-rule:nonzero;stroke:none"
           transform="matrix(1,0,0,-1,183.4952,480.4736)"><tspan
             id="tspan949"
             y="0"
             x="0">h</tspan></text><text
           id="text955"
           style="font-variant:normal;font-weight:normal;font-size:7.42541px;font-family:Times;-inkscape-font-specification:Times-Roman;writing-mode:lr-tb;fill:#231f20;fill-opacity:1;fill-rule:nonzero;stroke:none"
           transform="matrix(1,0,0,-1,188.3683,481.8658)"><tspan
             id="tspan953"
             y="0"
             x="0 3.7127049">–1</tspan></text><text
           id="text959"
           style="font-style:italic;font-variant:normal;font-size:9.74586px;font-family:Times;-inkscape-font-specification:Times-Italic;writing-mode:lr-tb;fill:#231f20;fill-opacity:1;fill-rule:nonzero;stroke:none"
           transform="matrix(1,0,0,-1,198.23,480.4736)"><tspan
             id="tspan957"
             y="0"
             x="0">M</tspan></text><text
           id="text963"
           style="font-variant:normal;font-weight:normal;font-size:9.74586px;font-family:Times;-inkscape-font-specification:Times-Roman;writing-mode:lr-tb;fill:#231f20;fill-opacity:1;fill-rule:nonzero;stroke:none"
           transform="matrix(1,0,0,-1,211.2214,480.4736)"><tspan
             id="tspan961"
             y="0"
             x="0">)</tspan></text><g
           transform="scale(0.1)"
           id="g965"><path
             id="path967"
             style="fill:none;stroke:#231f20;stroke-width:4.64088;stroke-linecap:butt;stroke-linejoin:miter;stroke-miterlimit:4;stroke-dasharray:none;stroke-opacity:1"
             d="m 2103.07,4807.82 c 0,-9.84 -7.99,-17.82 -17.82,-17.82 -9.85,0 -17.82,7.98 -17.82,17.82 0,9.85 7.97,17.82 17.82,17.82 9.83,0 17.82,-7.97 17.82,-17.82 z" /></g><path
           id="path969"
           style="fill:#231f20;fill-opacity:1;fill-rule:nonzero;stroke:none"
           d="m 208.92,480.782 c 0,-0.218 -0.177,-0.395 -0.395,-0.395 -0.22,0 -0.397,0.177 -0.397,0.395 0,0.22 0.177,0.397 0.397,0.397 0.218,0 0.395,-0.177 0.395,-0.397" /><g
           transform="scale(0.1)"
           id="g971"><path
             id="path973"
             style="fill:none;stroke:#231f20;stroke-width:4.64088;stroke-linecap:butt;stroke-linejoin:miter;stroke-miterlimit:4;stroke-dasharray:none;stroke-opacity:1"
             d="m 2089.2,4807.82 c 0,-2.18 -1.77,-3.95 -3.95,-3.95 -2.2,0 -3.97,1.77 -3.97,3.95 0,2.2 1.77,3.97 3.97,3.97 2.18,0 3.95,-1.77 3.95,-3.97 z" /></g><text
           id="text977"
           style="font-variant:normal;font-weight:normal;font-size:9.74586px;font-family:Times;-inkscape-font-specification:Times-Roman;writing-mode:lr-tb;fill:#231f20;fill-opacity:1;fill-rule:nonzero;stroke:none"
           transform="matrix(0,1,1,0,60.9824,576.424)"><tspan
             id="tspan975"
             y="0"
             x="0">&lt;</tspan></text><text
           id="text981"
           style="font-style:italic;font-variant:normal;font-size:9.74586px;font-family:Times;-inkscape-font-specification:Times-Italic;writing-mode:lr-tb;fill:#231f20;fill-opacity:1;fill-rule:nonzero;stroke:none"
           transform="matrix(0,1,1,0,60.9824,581.9205)"><tspan
             id="tspan979"
             y="0"
             x="0">b</tspan></text><text
           id="text985"
           style="font-variant:normal;font-weight:normal;font-size:9.74586px;font-family:Times;-inkscape-font-specification:Times-Roman;writing-mode:lr-tb;fill:#231f20;fill-opacity:1;fill-rule:nonzero;stroke:none"
           transform="matrix(0,1,1,0,60.9824,586.7935)"><tspan
             id="tspan983"
             y="0"
             x="0">(</tspan></text><text
           id="text989"
           style="font-style:italic;font-variant:normal;font-size:9.74586px;font-family:Times;-inkscape-font-specification:Times-Italic;writing-mode:lr-tb;fill:#231f20;fill-opacity:1;fill-rule:nonzero;stroke:none"
           transform="matrix(0,1,1,0,60.9824,590.0388)"><tspan
             id="tspan987"
             y="0"
             x="0">M</tspan></text><text
           id="text993"
           style="font-variant:normal;font-weight:normal;font-size:9.74586px;font-family:Times;-inkscape-font-specification:Times-Roman;writing-mode:lr-tb;fill:#231f20;fill-opacity:1;fill-rule:nonzero;stroke:none"
           transform="matrix(0,1,1,0,60.9824,598.1572)"><tspan
             id="tspan991"
             y="0"
             x="0 3.2453713 13.614966 19.111631">)&gt;=&lt;</tspan></text><text
           id="text997"
           style="font-variant:normal;font-weight:normal;font-size:9.74586px;font-family:Symbol;-inkscape-font-specification:Symbol;writing-mode:lr-tb;fill:#231f20;fill-opacity:1;fill-rule:nonzero;stroke:none"
           transform="matrix(0,1,1,0,60.9824,622.765)"><tspan
             id="tspan995"
             y="0"
             x="0">ξ</tspan></text><text
           id="text1001"
           style="font-variant:normal;font-weight:normal;font-size:7.8895px;font-family:Times;-inkscape-font-specification:Times-Roman;writing-mode:lr-tb;fill:#231f20;fill-opacity:1;fill-rule:nonzero;stroke:none"
           transform="matrix(0,1,1,0,62.37498,627.5705)"><tspan
             id="tspan999"
             y="0"
             x="0 3.9447501">hm</tspan></text><text
           id="text1005"
           style="font-variant:normal;font-weight:normal;font-size:9.74586px;font-family:Times;-inkscape-font-specification:Times-Roman;writing-mode:lr-tb;fill:#231f20;fill-opacity:1;fill-rule:nonzero;stroke:none"
           transform="matrix(0,1,1,0,60.9824,637.6518)"><tspan
             id="tspan1003"
             y="0"
             x="0">/</tspan></text><text
           id="text1009"
           style="font-variant:normal;font-weight:normal;font-size:9.74586px;font-family:Symbol;-inkscape-font-specification:Symbol;writing-mode:lr-tb;fill:#231f20;fill-opacity:1;fill-rule:nonzero;stroke:none"
           transform="matrix(0,1,1,0,60.9824,640.3612)"><tspan
             id="tspan1007"
             y="0"
             x="0">ξ</tspan></text><text
           id="text1013"
           style="font-variant:normal;font-weight:normal;font-size:7.8895px;font-family:Times;-inkscape-font-specification:Times-Roman;writing-mode:lr-tb;fill:#231f20;fill-opacity:1;fill-rule:nonzero;stroke:none"
           transform="matrix(0,1,1,0,62.37498,645.1658)"><tspan
             id="tspan1011"
             y="0"
             x="0 6.138031">mm</tspan></text><text
           id="text1017"
           style="font-variant:normal;font-weight:normal;font-size:9.74586px;font-family:Times;-inkscape-font-specification:Times-Roman;writing-mode:lr-tb;fill:#231f20;fill-opacity:1;fill-rule:nonzero;stroke:none"
           transform="matrix(0,1,1,0,60.9824,657.4392)"><tspan
             id="tspan1015"
             y="0"
             x="0">&gt;</tspan></text><text
           id="text1021"
           style="font-variant:normal;font-weight:normal;font-size:8.35359px;font-family:Times;-inkscape-font-specification:Times-Roman;writing-mode:lr-tb;fill:#231f20;fill-opacity:1;fill-rule:nonzero;stroke:none"
           transform="matrix(1,0,0,-1,69.4523,530.827)"><tspan
             id="tspan1019"
             y="0"
             x="0">2</tspan></text><text
           id="text1025"
           style="font-variant:normal;font-weight:normal;font-size:8.35359px;font-family:Times;-inkscape-font-specification:Times-Roman;writing-mode:lr-tb;fill:#231f20;fill-opacity:1;fill-rule:nonzero;stroke:none"
           transform="matrix(1,0,0,-1,69.4523,594.8711)"><tspan
             id="tspan1023"
             y="0"
             x="0">4</tspan></text><text
           id="text1029"
           style="font-variant:normal;font-weight:normal;font-size:8.35359px;font-family:Times;-inkscape-font-specification:Times-Roman;writing-mode:lr-tb;fill:#231f20;fill-opacity:1;fill-rule:nonzero;stroke:none"
           transform="matrix(1,0,0,-1,69.4523,658.4512)"><tspan
             id="tspan1027"
             y="0"
             x="0">6</tspan></text><text
           id="text1033"
           style="font-variant:normal;font-weight:normal;font-size:8.35359px;font-family:Times;-inkscape-font-specification:Times-Roman;writing-mode:lr-tb;fill:#231f20;fill-opacity:1;fill-rule:nonzero;stroke:none"
           transform="matrix(1,0,0,-1,69.4523,721.5672)"><tspan
             id="tspan1031"
             y="0"
             x="0">8</tspan></text><text
           id="text1037"
           style="font-variant:normal;font-weight:normal;font-size:9.74586px;font-family:Times;-inkscape-font-specification:Times-Roman;writing-mode:lr-tb;fill:#231f20;fill-opacity:1;fill-rule:nonzero;stroke:none"
           transform="matrix(1,0,0,-1,117.7171,703.584)"><tspan
             id="tspan1035"
             y="0"
             x="0">Spherical collapse</tspan></text><text
           id="text1041"
           style="font-variant:normal;font-weight:normal;font-size:9.74586px;font-family:Times;-inkscape-font-specification:Times-Roman;writing-mode:lr-tb;fill:#231f20;fill-opacity:1;fill-rule:nonzero;stroke:none"
           transform="matrix(1,0,0,-1,117.7171,691.9817)"><tspan
             id="tspan1039"
             y="0"
             x="0">Elliptical collapse</tspan></text><path
           d="m 102.66716,681.78327 0.445,0.111 0.335,0.334 0.223,0.335 0.112,0.334 v 0.445 l -0.112,0.447 -0.223,0.333 -0.335,0.223 -0.445,0.112 h -0.446 l -0.333,-0.112 -0.335,-0.223 -0.223,-0.333 -0.222,-0.447 v -0.445 l 0.222,-0.334 0.223,-0.335 0.335,-0.334 0.333,-0.111 h 0.446"
           style="fill:#231f20;fill-opacity:1;fill-rule:evenodd;stroke:none;stroke-width:0.999998"
           id="path889-4" /><text
           transform="scale(1,-1)"
           y="-680.06525"
           x="117.82512"
           style="font-variant:normal;font-weight:normal;font-size:9.74588px;font-family:Times;-inkscape-font-specification:Times-Roman;writing-mode:lr-tb;inline-size:0;fill:#231f20;fill-opacity:1;fill-rule:nonzero;stroke:none;stroke-width:0.999998"
           id="text1041-1"><tspan
             style="stroke-width:0.999998"
             x="117.82512"
             y="-680.06525"
             id="tspan1039-7">Data points (simulation)</tspan></text></g></g></g></svg>
